<svg width="500" height="500" xmlns="http://www.w3.org/2000/svg">

 <g>
  <title>background</title>
  <rect fill="none" id="canvas_background" height="402" width="582" y="-1" x="-1"/>
 </g>
 <g>
  <title>Layer 1</title>
  <g id="layer1-9">
   <path fill="#333333" fill-rule="nonzero" id="rect2995-4" d="m50.000004,-11.001073c-27.699951,0 -50,22.299988 -50,50.000001l0,400.000004c0,27.700012 22.300049,50 50,50l399.999996,0c27.700012,0 50,-22.299988 50,-50l0,-400.000004c0,-27.700013 -22.299988,-50.000001 -50,-50.000001l-399.999996,0zm89.906246,105.781247c19.182129,0 34.71875,15.536621 34.71875,34.718758c0,19.182129 -15.536621,34.75 -34.71875,34.75c-19.182129,0 -34.71875,-15.567871 -34.71875,-34.75c0,-19.182137 15.536621,-34.718758 34.71875,-34.718758zm181.875,90.437508c3.922058,0.013977 7.924255,0.198975 13.3125,0.53125c26.183777,1.614685 55.360596,22.079956 56.21875,70.03125c0.706787,39.492798 0.5,102.080933 0.5,125.125l-59.53125,0c0,-23.574707 0.25,-72.274231 0.25,-106.71875c0,-15.672424 -7.035034,-36.75 -32.09375,-36.75c-27.59729,0 -34.3125,25.644287 -34.3125,36.75c0,33.073608 -0.28125,85.751282 -0.28125,106.71875l-59.1875,0c0,-35.344604 0.375,-156.653503 0.375,-190.90625c30.567261,0 45.190857,-0.0625 56.375,-0.0625c0,11.217224 -0.09375,18.721924 -0.09375,26.90625c9.336975,-18.851318 34.831299,-30.654602 45.75,-31.21875c4.978577,-0.257202 8.796692,-0.420288 12.71875,-0.40625zm-211.59375,5.53125l59.34375,0l0,190.0625l-59.34375,0l0,-190.0625z"/>
  </g>
 </g>
</svg>