<?xml version="1.0" encoding="UTF-8" standalone="no"?>
<!-- Created with Inkscape (http://www.inkscape.org/) -->

<svg
   xmlns:dc="http://purl.org/dc/elements/1.1/"
   xmlns:cc="http://creativecommons.org/ns#"
   xmlns:rdf="http://www.w3.org/1999/02/22-rdf-syntax-ns#"
   xmlns:svg="http://www.w3.org/2000/svg"
   xmlns="http://www.w3.org/2000/svg"
   xmlns:sodipodi="http://sodipodi.sourceforge.net/DTD/sodipodi-0.dtd"
   xmlns:inkscape="http://www.inkscape.org/namespaces/inkscape"
   width="180mm"
   height="50mm"
   viewBox="0 0 637.79528 177.16536"
   id="svg2"
   version="1.1"
   inkscape:version="0.91 r13725"
   sodipodi:docname="WebloreLogo.svg">
  <defs
     id="defs4" />
  <sodipodi:namedview
     id="base"
     pagecolor="#ffffff"
     bordercolor="#666666"
     borderopacity="1.0"
     inkscape:pageopacity="0.0"
     inkscape:pageshadow="2"
     inkscape:zoom="0.7"
     inkscape:cx="521.84798"
     inkscape:cy="40.690721"
     inkscape:document-units="px"
     inkscape:current-layer="layer1"
     showgrid="false"
     inkscape:window-width="1855"
     inkscape:window-height="1056"
     inkscape:window-x="65"
     inkscape:window-y="24"
     inkscape:window-maximized="1" />
  <metadata
     id="metadata7">
    <rdf:RDF>
      <cc:Work
         rdf:about="">
        <dc:format>image/svg+xml</dc:format>
        <dc:type
           rdf:resource="http://purl.org/dc/dcmitype/StillImage" />
        <dc:title></dc:title>
      </cc:Work>
    </rdf:RDF>
  </metadata>
  <g
     inkscape:label="Weblore.logo"
     inkscape:groupmode="layer"
     id="layer1"
     transform="translate(0,-875.19684)">
    <rect
       style="fill:#0000ff;fill-rule:evenodd;stroke:#000000;stroke-width:1px;stroke-linecap:butt;stroke-linejoin:miter;stroke-opacity:1"
       id="rect3513"
       width="445.71429"
       height="0"
       x="285.71429"
       y="570.93365" />
    <path
       inkscape:connector-curvature="0"
       id="path3399"
       d="m 84.736951,1028.1238 c -4.64825,-4.2045 -16.37755,-11.4113 -26.86314,-16.5055 -10.07117,-4.8928 -31.626554,-13.12274 -43.538094,-16.62303 -4.6723806,-1.37301 -8.8344136,-2.71053 -9.2489616,-2.97227 -0.791444,-0.4997 12.5537096,-36.28625 13.9127326,-37.30857 0.431838,-0.32485 3.620937,0.0365 7.086886,0.80309 5.46571,1.20882 6.301724,1.64538 6.301724,3.29063 0,1.75114 -0.339211,1.87754 -4.414017,1.64477 l -4.414017,-0.25215 -1.636196,4.10929 c -5.662596,14.22156 -9.202171,24.8429 -8.454757,25.37054 0.476633,0.33647 5.350773,2.0199 10.831421,3.74094 22.317099,7.00806 41.361939,16.01516 52.956969,25.04546 5.57608,4.3428 13.16805,12.8238 11.47948,12.8238 -0.27434,0 -2.07435,-1.4252 -4.00003,-3.167 z m 9.2984,-0.5521 c 3.63336,-4.9424 13.010879,-12.5303 21.062339,-17.0428 9.09642,-5.0982 27.58365,-12.81881 40.33607,-16.84517 6.3501,-2.00494 11.74286,-4.0187 11.9839,-4.47502 0.24104,-0.45632 -1.91802,-7.05631 -4.79792,-14.66665 l -5.23617,-13.83699 -4.62392,0 c -3.98571,0 -4.67074,-0.2394 -4.96304,-1.73448 -0.36601,-1.87203 1.61652,-2.70056 9.56721,-3.99831 3.74021,-0.61049 4.28168,-0.50706 5.14302,0.98237 2.57567,4.45384 13.83449,35.47621 13.0618,35.99027 -0.48692,0.32394 -5.66387,2.04395 -11.50435,3.82224 -25.27338,7.69514 -48.53146,18.40174 -64.05022,29.48454 l -8.996279,6.4248 3.01757,-4.1048 z m -12.57258,-15.9431 c -10.88591,-8.5313 -32.253,-18.8843 -47.747289,-23.13505 -2.774229,-0.7611 -5.041237,-1.77057 -5.0378,-2.24329 0.0034,-0.47271 1.453219,-4.67805 3.221736,-9.34519 1.768514,-4.66715 4.697734,-12.47786 6.509374,-17.35715 1.811638,-4.87928 3.667989,-9.17298 4.125219,-9.54154 1.25255,-1.00963 12.03438,1.62772 22.58742,5.52513 6.51973,2.40785 11.47939,4.96994 16.29883,8.41973 3.81009,2.72729 6.68221,5.13685 6.38249,5.35459 -0.29972,0.21773 -3.32508,-1.24915 -6.72301,-3.25973 -7.84997,-4.64489 -21.64481,-9.47659 -28.81852,-10.0938 -3.04558,-0.26203 -5.53741,-0.27447 -5.53741,-0.0276 0,0.24683 -2.40057,6.76699 -5.334591,14.48924 -2.934028,7.72224 -5.150408,14.17425 -4.925288,14.33779 0.22511,0.16354 4.353108,1.68283 9.173319,3.3762 17.84916,6.27053 33.74154,16.16667 40.70377,25.34617 1.63982,2.162 2.83447,3.902 2.65476,3.8665 -0.1797,-0.035 -3.56956,-2.6058 -7.53301,-5.712 z m 13.04709,2.305 c 8.537509,-10.4736 23.607099,-19.88214 42.002159,-26.22354 4.73983,-1.63398 7.90703,-3.19723 7.90703,-3.90271 0,-1.2566 -9.41824,-26.55778 -10.2499,-27.53533 -1.2549,-1.47506 -12.20486,0.16463 -19.64009,2.94099 -3.85703,1.44025 -13.02147,5.98368 -18.941899,9.3908 l -3.70093,2.12983 3.44237,-3.20307 c 4.20041,-3.90841 9.750869,-7.50478 16.089349,-10.42495 4.97612,-2.29253 18.39473,-6.276 24.09988,-7.15433 l 3.31068,-0.50969 4.51155,11.80316 c 2.48135,6.49174 5.65065,14.70593 7.04289,18.25375 1.39224,3.54782 2.53134,6.57754 2.53134,6.73271 0,0.15518 -5.07334,2.02061 -11.2741,4.14542 -15.40284,5.27807 -27.73093,11.39856 -39.62743,19.67396 -8.411989,5.8514 -9.614919,6.474 -7.502899,3.883 z M 544.01844,984.26758 c -4.40568,-1.95149 -6.74637,-4.61974 -7.46447,-8.50907 -0.31824,-1.72365 -0.992,-3.31951 -1.49723,-3.54635 -0.50524,-0.22684 -0.91862,-1.18256 -0.91862,-2.12383 0,-2.84094 -3.00958,-5.26057 -6.20862,-4.99159 -2.63436,0.22149 -2.83808,0.52068 -3.1331,4.60102 -0.24711,3.41768 0.27107,5.24746 2.38929,8.43723 4.27114,6.43182 3.48678,7.59734 -3.86156,5.73802 -5.85358,-1.4811 -15.61839,-1.48837 -18.30128,-0.0136 -3.91699,2.15311 -6.47971,-1.4821 -3.23906,-4.59462 0.8575,-0.8236 1.55909,-1.92922 1.55909,-2.45693 0,-0.52771 0.54319,-1.93672 1.20709,-3.13113 1.54052,-2.77147 1.50246,-21.48848 -0.0496,-24.40044 -0.63664,-1.19437 -1.1575,-2.44236 -1.1575,-2.77326 0,-0.33091 -0.90389,-1.19589 -2.00862,-1.92219 -1.10474,-0.72629 -1.79591,-1.90831 -1.53594,-2.6267 0.42737,-1.18094 2.88894,-1.30617 25.67367,-1.30617 l 25.201,0 4.49346,2.58234 c 2.47141,1.4203 4.9632,3.21997 5.53733,3.99929 1.62504,2.20584 1.24697,8.6787 -0.62002,10.61507 -2.08356,2.161 -8.05942,4.01759 -12.93155,4.01759 -3.10964,0 -3.51025,0.18097 -2.4517,1.10755 0.69592,0.60916 2.64951,1.32842 4.34131,1.59836 2.9095,0.46423 5.71434,3.44103 7.80822,8.28695 0.83281,1.92738 4.89761,1.76732 4.89761,-0.19286 0,-0.84857 0.64273,-1.54286 1.42827,-1.54286 2.57581,0 4.94316,2.75106 4.94316,5.74436 0,2.36668 -0.78451,3.49278 -4.12269,5.91783 -3.85366,2.79952 -4.52929,2.99477 -10.35357,2.99207 -4.30148,-0.002 -7.28169,-0.46833 -9.62438,-1.50603 z m -5.44863,-26.82481 c 2.99104,-2.17286 3.1924,-8.72497 0.33853,-11.01584 -2.38347,-1.91327 -9.90976,-1.90874 -11.13392,0.007 -0.40675,0.63643 -1.29166,1.93351 -1.96649,2.88239 -0.67483,0.94888 -1.22695,3.68223 -1.22695,6.07409 l 0,4.34885 5.90358,-0.35565 c 4.06541,-0.24491 6.58287,-0.84913 8.08525,-1.94055 z m 57.49784,27.32274 c -3.60984,-0.50467 -6.91502,-1.17794 -7.34485,-1.49616 -1.43749,-1.06421 -10.02724,-0.59388 -12.74049,0.69761 -2.49651,1.18833 -2.8032,1.18747 -4.45497,-0.0125 -1.55787,-1.13173 -1.59098,-1.4985 -0.27192,-3.0119 4.13823,-4.74786 4.42544,-5.87967 4.3618,-17.18839 -0.0694,-12.33108 -0.47105,-14.38801 -3.40538,-17.43963 -1.08292,-1.12621 -1.96895,-2.68836 -1.96895,-3.47143 0,-1.29226 1.20154,-1.44809 13.00833,-1.6871 35.14042,-0.71133 36.19695,-0.67453 40.37445,1.40634 3.13971,1.56394 6.08389,4.35541 6.08389,5.76834 0,0.15488 -2.0309,0.5282 -4.5131,0.8296 -2.4822,0.3014 -4.77065,0.84137 -5.08544,1.19994 -0.31479,0.35857 -2.22592,0.74998 -4.24697,0.86981 -3.21506,0.19062 -3.71921,-0.0233 -4.03103,-1.7107 -0.47676,-2.57972 -5.2984,-6.17143 -8.28476,-6.17143 -4.27059,0 -7.83596,4.47053 -8.55848,10.73125 -0.67087,5.81318 0.0403,6.61769 3.43844,3.88989 1.08177,-0.86837 3.58865,-2.13793 5.57083,-2.82124 3.51569,-1.21196 3.75936,-1.18274 9.95107,1.19315 6.55804,2.51645 10.28549,3.01782 12.18377,1.63881 1.71402,-1.24516 4.63757,-8.5e-4 4.63757,1.97387 0,3.86791 -6.62307,8.81449 -11.15,8.32763 -6.67872,-0.71828 -9.12365,-1.28522 -11.20929,-2.59928 -3.00388,-1.89261 -6.53742,-2.59673 -9.92849,-1.97844 -2.12734,0.38787 -2.67566,1.10605 -3.27948,4.29542 -1.73254,9.15124 3.55596,14.31273 13.10397,12.78928 2.27498,-0.36299 3.30085,-1.14125 4.14822,-3.14698 0.61918,-1.46561 0.87585,-3.35903 0.57038,-4.20762 -0.38626,-1.07302 -0.0326,-1.54288 1.16131,-1.54288 0.94419,0 1.7167,0.34714 1.7167,0.77143 0,0.43517 3.00873,0.77143 6.90239,0.77143 3.89365,0 6.90238,-0.33626 6.90238,-0.77143 0,-0.42429 0.7797,-0.77143 1.73267,-0.77143 3.87552,0 -0.43024,9.08668 -4.91839,10.37955 -0.87607,0.25236 -2.81286,0.9571 -4.30397,1.56607 -3.73244,1.52434 -18.21448,2.03885 -26.15222,0.92911 z m -221.2545,-0.87901 c -1.6499,-1.18236 -1.18742,-2.89743 1.29993,-4.82085 1.69731,-1.3125 2.44669,-3.04253 2.78362,-6.42633 0.25357,-2.54669 0.8809,-4.81885 1.39409,-5.04925 1.29379,-0.58088 1.178,-10.92683 -0.12886,-11.51358 -0.58405,-0.26222 -1.06191,-1.65494 -1.06191,-3.09494 0,-2.9555 -1.7418,-6.21414 -4.50548,-8.42909 -2.07435,-1.66249 -2.17996,-1.98443 -1.05326,-3.21101 0.55598,-0.60526 3.15971,-0.6334 9.06079,-0.0979 5.59115,0.50734 10.07481,0.48864 13.80476,-0.0576 4.51028,-0.6605 5.81649,-0.60201 7.117,0.3187 1.00191,0.70931 1.19889,1.33197 0.53096,1.67834 -2.29853,1.19195 -3.71667,4.17701 -3.71667,7.82325 0,2.10215 -0.47787,4.03663 -1.06191,4.29886 -0.59202,0.2658 -1.0619,3.84997 -1.0619,8.1 0,4.25002 0.46988,7.83419 1.0619,8.1 0.58404,0.26222 1.06191,1.3078 1.06191,2.32351 0,3.28 2.26513,5.73232 5.98374,6.47821 8.85247,1.77567 13.44459,-1.79376 10.57688,-8.22136 -0.89536,-2.00683 -5.30267,-3.08305 -7.41363,-1.81034 -5.16999,3.11702 -8.29269,-5.5864 -3.46671,-9.66222 2.09675,-1.77082 3.54261,-2.16188 9.06643,-2.45214 6.54175,-0.34375 6.59082,-0.33085 10.70996,2.81479 8.6893,6.63572 6.76976,16.56906 -4.27649,22.13014 l -3.92442,1.97569 -20.87904,-0.231 c -11.48348,-0.12705 -21.33925,-0.56078 -21.90169,-0.96385 z m 76.96526,-1.04609 c -7.03901,-2.47122 -14.83022,-8.29358 -15.91957,-11.89667 -0.3527,-1.16654 -1.08235,-2.31902 -1.62147,-2.56107 -0.53911,-0.24205 -0.9802,-2.99037 -0.9802,-6.10737 0,-6.3808 2.12498,-10.25037 8.36762,-15.23741 6.3098,-5.04068 10.87278,-6.32139 22.6525,-6.35796 9.00559,-0.028 10.94858,0.21248 15.3268,1.89656 6.74017,2.59261 12.60316,6.91225 14.29076,10.52893 0.76249,1.63409 1.76666,3.30086 2.23148,3.70393 1.15101,0.99811 1.07769,10.45286 -0.081,10.45286 -0.50941,0 -1.23695,1.4118 -1.61678,3.13733 -0.50083,2.2753 -2.05823,4.19951 -5.66807,7.00307 -6.86094,5.32849 -11.69484,6.94087 -22.05326,7.356 -7.73641,0.31004 -9.0699,0.1387 -14.92876,-1.9182 z m 19.47407,-4.21211 c 3.56246,-2.75477 4.96342,-11.29444 3.42745,-20.89234 -0.6884,-4.30168 -1.62431,-7.99697 -2.07979,-8.21178 -0.45549,-0.2148 -1.16184,-1.16741 -1.5697,-2.1169 -1.62966,-3.79394 -12.44553,-3.44578 -14.63306,0.47102 -1.33176,2.38452 -1.74093,21.59281 -0.54683,25.66993 1.31027,4.47374 4.46736,6.82827 9.15573,6.82827 2.76847,0 4.67577,-0.53382 6.2462,-1.7482 z m -216.16965,4.48792 c -3.9671,-1.60419 -7.659,-4.45512 -7.659,-5.91438 0,-0.74957 -0.47786,-1.57741 -1.06191,-1.83963 -0.63284,-0.28413 -1.0619,-5.23114 -1.0619,-12.24349 0,-13.30353 1.13635,-16.25977 7.59973,-19.7708 3.5355,-1.92055 3.64749,-1.92857 26.91217,-1.92857 l 23.36191,0 0,3.85714 0,3.85714 -22.19906,0.20888 c -24.33904,0.229 -24.94794,0.35063 -25.02193,4.99827 l -0.0338,2.12143 18.58333,0 18.58333,0 0,3.85714 0,3.85714 -18.58333,0 -18.58333,0 0,4.89473 c 0,7.55601 -0.37504,7.44813 25.89298,7.44813 l 22.0091,0 -0.32366,3.66429 -0.32366,3.66429 -22.83095,0.12527 c -16.78342,0.0921 -23.47439,-0.13491 -25.26005,-0.85698 z m 57.55587,0.3561 c -1.06266,-0.77198 -0.97606,-39.49445 0.0929,-41.5466 0.43259,-0.83044 4.52817,-0.9838 20.60129,-0.77143 17.28744,0.22841 20.34511,0.45173 22.11333,1.61506 1.12857,0.7425 2.61165,1.35 3.29572,1.35 0.68407,0 1.24377,0.50346 1.24377,1.11881 0,0.61534 0.83625,1.45874 1.85833,1.8742 1.51748,0.61685 1.87406,1.89508 1.94408,6.96904 0.0613,4.43855 0.55556,6.60277 1.73028,7.57579 2.8035,2.32213 5.08635,6.19376 5.08635,8.62625 0,2.8111 -2.8869,7.47988 -5.97191,9.65796 -5.67344,4.00554 -7.67776,4.29224 -30.00652,4.29224 -12.35842,0 -21.36913,-0.31199 -21.98765,-0.76132 z m 44.07964,-9.32659 c 4.06695,-2.95447 4.10565,-4.5256 0.18659,-7.57337 l -3.08081,-2.39587 -15.50253,0 -15.50252,0 0,6.17143 0,6.17143 15.31594,0 15.31592,0 3.26741,-2.37362 z m -4.20203,-18.80907 c 0.78614,-0.68813 1.01022,-2.03721 0.5766,-3.47143 l -0.70925,-2.34588 -14.7823,0 -14.78229,0 0,3.47143 0,3.47143 14.20569,0 c 11.15457,0 14.48187,-0.24175 15.49155,-1.12555 z M 216.62859,980.6949 c -1.46012,-1.49867 -3.25208,-3.20003 -3.98214,-3.78081 -0.73006,-0.58078 -1.32739,-1.23846 -1.32739,-1.46151 0,-0.22306 -2.27692,-2.61834 -5.05984,-5.32286 -5.79232,-5.62916 -4.45245,-5.91955 -13.46463,2.9182 -2.59596,2.54572 -5.38019,5.17581 -6.18718,5.84465 -0.807,0.66884 -1.77414,1.79706 -2.14924,2.50714 -0.8892,1.68339 -2.77563,1.65208 -3.55041,-0.0589 -0.33622,-0.7425 -1.27694,-2.44389 -2.09049,-3.78087 -0.81354,-1.33698 -1.48211,-3.24626 -1.48571,-4.24285 -0.003,-0.9966 -0.68162,-2.75203 -1.5067,-3.90096 -0.82508,-1.14893 -2.09574,-4.09965 -2.82367,-6.55714 -0.72792,-2.4575 -1.70883,-4.839 -2.17977,-5.29222 -0.47095,-0.45323 -1.40352,-2.70966 -2.0724,-5.01429 -0.66887,-2.30462 -1.5954,-4.53738 -2.05897,-4.96166 -0.46357,-0.42429 -1.18279,-2.09283 -1.59826,-3.70786 l -0.75541,-2.93644 5.70444,0.23644 c 5.58168,0.23134 5.71159,0.29038 6.03719,2.74357 0.18302,1.37893 0.71817,2.50714 1.18922,2.50714 0.47106,0 1.41756,2.07183 2.10334,4.60406 0.68576,2.53223 1.63538,4.7785 2.11026,4.99171 0.47488,0.2132 1.47482,2.48066 2.22212,5.0388 1.36807,4.68322 3.55514,6.12013 5.02457,3.30115 0.38704,-0.7425 2.76103,-3.25928 5.27553,-5.59286 2.5145,-2.33357 4.57213,-4.67678 4.57249,-5.20714 0.001,-1.96278 3.04123,-0.86616 6.77513,2.44412 2.11452,1.87462 3.84459,3.7839 3.84459,4.24285 0,0.45895 0.45177,0.83446 1.00394,0.83446 0.55219,0 1.631,0.9504 2.39738,2.11199 2.59823,3.93814 4.55182,3.08434 6.09168,-2.66233 0.77157,-2.87946 1.78307,-5.58713 2.24777,-6.01706 0.4647,-0.42993 1.4231,-2.51279 2.12977,-4.62857 0.70669,-2.11579 1.69777,-4.17668 2.20239,-4.57975 0.50464,-0.40307 0.91753,-1.53128 0.91753,-2.50714 0,-1.63538 0.45516,-1.77429 5.81394,-1.77429 l 5.81393,0 -0.67139,2.50715 c -0.36926,1.37893 -1.01834,2.68071 -1.4424,2.89285 -0.42406,0.21215 -1.35642,2.46858 -2.07191,5.01429 -0.7155,2.54572 -1.6644,4.97572 -2.10866,5.4 -0.44426,0.42429 -1.41077,2.68072 -2.14778,5.01429 -0.73702,2.33357 -1.70352,4.59 -2.14779,5.01428 -0.44426,0.42429 -1.37498,2.78044 -2.06824,5.23589 -0.69328,2.45545 -1.93677,5.40617 -2.76331,6.55715 -0.82656,1.15097 -1.50576,2.70018 -1.50936,3.44268 -0.01,2.03642 -1.31188,1.60264 -4.25416,-1.41731 z M 89.784421,967.20631 c -0.30555,-0.60568 -0.6815,-5.09339 -0.83545,-9.97267 l -0.27992,-8.87143 -12.74286,0 c -12.40632,0 -12.75181,0.0458 -13.08218,1.73571 -0.44105,2.25603 -1.83216,2.19402 -4.91038,-0.21887 -2.42378,-1.89991 -2.83081,-1.94847 -14.55049,-1.73572 l -12.056947,0.21888 -0.329578,2.89285 c -0.334927,2.9398 -0.838923,3.25876 -3.831192,2.42461 -1.362934,-0.37994 -1.679707,-1.8042 -1.679707,-7.55221 0,-13.7653 6.022369,-24.27035 19.545864,-34.0946 9.48943,-6.89367 18.97299,-10.85689 31.40537,-13.12448 9.79997,-1.78744 27.955339,-1.17164 36.593099,1.2412 26.29393,7.34481 42.6925,23.13854 44.7686,43.11734 0.76709,7.38181 -0.27438,10.10957 -3.85981,10.10957 -1.67658,0 -2.08645,-0.5304 -2.08645,-2.7 l 0,-2.7 -11.77894,0 c -10.17101,0 -12.14751,0.21062 -14.47892,1.54286 -1.48499,0.84857 -3.35233,1.54286 -4.14964,1.54286 -0.79731,0 -1.44965,-0.69429 -1.44965,-1.54286 0,-1.45608 -0.70794,-1.54286 -12.58701,-1.54286 l -12.587019,0 -0.73887,9.06429 c -0.50318,6.1729 -1.21791,9.41557 -2.24063,10.16553 -1.30102,0.95404 -1.57602,0.95404 -2.05729,0 z m -32.43353,-25.97982 c 0.008,-2.73271 1.49119,-10.85669 2.67671,-14.65714 0.53465,-1.71393 0.40283,-1.73572 -10.49877,-1.73572 -7.54004,0 -11.387479,0.30572 -12.135559,0.96429 -1.75272,1.54299 -5.623442,10.52896 -6.286031,14.59314 l -0.607827,3.72829 13.421727,0 13.42173,0 0.008,-2.89286 z m 31.84911,-6.75 0,-9.64286 -11.08733,0 c -7.49321,0 -11.34324,0.30083 -11.87682,0.92801 -1.14582,1.34683 -3.46233,11.24907 -3.52759,15.07914 l -0.0559,3.27857 13.2738,0 13.27381,0 0,-9.64286 z m 30.750249,4.43571 c -0.0247,-2.86392 -0.65735,-7.11642 -1.40579,-9.45 l -1.36081,-4.24285 -11.86801,-0.21813 -11.868009,-0.21812 0,9.66812 0,9.66813 13.273799,0 13.27381,0 -0.045,-5.20715 z m 31.88953,2.31429 c -0.0152,-3.47861 -2.17904,-9.53561 -4.82292,-13.5 l -1.92925,-2.89286 -11.09227,0 -11.09226,0 0.70967,2.89286 c 0.39032,1.59107 0.9698,5.49643 1.28774,8.67857 0.31793,3.18214 0.76289,6.21965 0.98879,6.75 0.29879,0.70147 3.89297,0.96429 13.18693,0.96429 l 12.77618,0 -0.0126,-2.89286 z M 65.293391,915.05322 c 2.07196,-3.2578 4.95357,-7.05321 6.40357,-8.43425 1.45001,-1.38103 2.63638,-2.70489 2.63638,-2.94191 0,-0.603 -8.06615,1.8071 -13.79463,4.12172 -5.31725,2.14846 -18.06252,10.7899 -18.06252,12.24661 0,0.65798 2.79398,0.9311 9.525,0.9311 l 9.52499,0 3.76721,-5.92327 z m 23.90661,-3.71959 c 0,-5.30357 -0.26266,-9.64286 -0.58367,-9.64286 -1.8653,0 -6.99117,2.6268 -10.26876,5.26231 -3.16946,2.54858 -10.38566,11.96698 -10.38566,13.55513 0,0.25755 4.77857,0.46828 10.61905,0.46828 l 10.61904,0 0,-9.64286 z m 25.462399,8.67857 c -0.0394,-1.62962 -3.99215,-7.42008 -7.4594,-10.92747 -3.559,-3.60018 -7.629979,-6.08561 -11.386629,-6.95177 -2.36461,-0.54521 -2.36874,-0.52926 -2.36874,9.14868 l 0,9.69485 10.619039,0 c 7.79974,0 10.61286,-0.25602 10.59573,-0.96429 z m 25.64968,-0.38571 c -3.32107,-4.50153 -17.2655,-12.31999 -26.53792,-14.87947 l -5.49949,-1.51804 3.55634,3.75579 c 1.95598,2.06568 4.90373,6.05887 6.55054,8.87375 l 2.99421,5.11797 9.96615,0 c 9.16306,0 9.8859,-0.10879 8.97017,-1.35 z"
       style="fill:#ceaa99" />
    <path
       inkscape:connector-curvature="0"
       id="path3397"
       d="m 85.347921,1028.5304 c -3.97957,-3.7903 -17.24194,-11.9578 -27.47411,-16.9197 -10.09345,-4.8946 -31.659345,-13.12478 -43.538094,-16.61543 -4.6723806,-1.37301 -8.8406786,-2.71508 -9.2628836,-2.98238 -0.422204,-0.2673 2.458109,-8.80949 6.4006966,-18.98263 l 7.168341,-18.49662 2.985817,0.25709 c 1.642198,0.1414 4.735099,0.69705 6.873112,1.23477 3.021103,0.75983 3.887298,1.39012 3.887298,2.82862 0,1.70384 -0.358541,1.83036 -4.511445,1.59187 -3.083747,-0.17709 -4.652906,0.067 -4.958453,0.77143 -3.499259,8.06698 -10.119615,27.99159 -9.458125,28.46514 0.481603,0.34478 4.937428,1.88509 9.901833,3.42291 29.615993,9.17403 55.407453,23.18073 63.166353,34.30383 3.19197,4.576 2.81902,4.9302 -1.18034,1.1211 z m 8.68743,-0.9587 c 3.63336,-4.9424 13.010879,-12.5303 21.062339,-17.0428 9.09642,-5.0982 27.58365,-12.81881 40.33607,-16.84517 6.3501,-2.00494 11.74287,-4.0187 11.98391,-4.47502 0.24104,-0.45632 -1.92179,-7.05631 -4.80628,-14.66665 l -5.24453,-13.83699 -4.33408,0.0657 c -3.4005,0.0516 -4.47461,-0.25596 -4.98653,-1.42765 -0.88416,-2.0237 0.12775,-2.56494 7.31872,-3.91455 6.0501,-1.13548 6.18528,-1.12566 7.11067,0.51664 2.6636,4.7271 13.85275,35.49434 13.09225,36.00024 -0.48651,0.32364 -5.66311,2.0434 -11.5036,3.8217 -25.27338,7.69515 -48.53146,18.40165 -64.05022,29.48455 l -8.996279,6.4248 3.01757,-4.1048 z m 0.47452,-13.6381 c 8.500519,-10.4283 21.932289,-18.91161 40.723979,-25.72081 l 9.91699,-3.59344 -4.99188,-13.23336 c -6.28544,-16.66255 -5.70939,-15.69521 -9.34651,-15.69521 -7.54293,0 -19.1116,3.9748 -31.675829,10.88329 l -7.02813,3.86445 3.33124,-3.05551 c 4.14026,-3.79756 9.762059,-7.41357 15.978219,-10.27739 4.97612,-2.29253 18.39473,-6.276 24.09988,-7.15433 l 3.31068,-0.50969 4.51155,11.80316 c 2.48135,6.49174 5.65065,14.70593 7.04289,18.25375 1.39224,3.54782 2.53134,6.57754 2.53134,6.73271 0,0.15518 -5.00008,1.99551 -11.1113,4.08963 -15.7409,5.39392 -27.80265,11.35815 -39.59538,19.57895 -8.502459,5.9271 -9.791759,6.6027 -7.697749,4.0338 z m -13.30738,-2.7502 c -11.3473,-8.3764 -31.12529,-17.99471 -45.363199,-22.06078 -3.942325,-1.12586 -7.16786,-2.46496 -7.16786,-2.97577 0,-0.51081 1.865629,-5.7499 4.145843,-11.64241 2.280217,-5.89251 5.210747,-13.66437 6.512307,-17.2708 1.301548,-3.60643 2.742049,-6.8587 3.201109,-7.22726 1.25807,-1.01005 12.03739,1.62759 22.61132,5.53285 6.66906,2.46309 11.38114,4.91379 16.25303,8.45301 3.77359,2.74134 6.63643,5.14743 6.3619,5.34686 -0.27452,0.19943 -3.27927,-1.28242 -6.6772,-3.293 -7.8093,-4.62083 -22.27504,-9.70833 -28.92425,-10.17247 l -5.06495,-0.35355 -3.49925,9.14964 c -1.92458,5.0323 -4.430249,11.5261 -5.568149,14.43067 -1.13789,2.90458 -1.86213,5.43126 -1.6094,5.61485 0.25272,0.18359 4.351518,1.7011 9.108439,3.37223 19.41864,6.8219 32.64921,15.27503 41.96271,26.81043 1.44451,1.7891 0.0813,0.9831 -6.28241,-3.7145 z M 544.81191,984.40332 c -2.01406,-0.80702 -4.16442,-2.12999 -4.77857,-2.93993 -0.61415,-0.80993 -1.4743,-1.66634 -1.91145,-1.90312 -0.43714,-0.23678 -1.29953,-2.49321 -1.91641,-5.01429 -0.61688,-2.52107 -1.83467,-5.71198 -2.70621,-7.09091 -1.34135,-2.12229 -2.14748,-2.50715 -5.25145,-2.50715 l -3.66684,0 0,5.21908 c 0,4.00861 0.58122,6.00849 2.50602,8.62274 3.20678,4.35545 2.34312,7.88776 -1.2839,5.25104 -1.90934,-1.38802 -21.57643,-1.34012 -22.21814,0.0541 -0.33705,0.73231 -0.88434,0.58734 -1.94823,-0.51609 -1.26756,-1.31467 -1.26063,-1.84734 0.0483,-3.71841 4.50097,-6.43354 4.84355,-7.74287 4.84355,-18.51188 0,-9.41699 -0.26908,-11.06216 -2.25197,-13.76913 -1.23859,-1.69086 -2.9031,-3.34865 -3.69891,-3.68397 -1.0818,-0.45583 -1.15973,-0.94253 -0.30882,-1.92858 1.01923,-1.1811 3.65208,-1.31888 25.20249,-1.31888 23.29291,0 24.17231,0.0559 27.43183,1.74494 6.15432,3.18901 8.84443,6.16419 8.84443,9.78164 0,5.52625 -6.66035,9.68771 -15.50501,9.68771 -3.1362,0 -3.75061,0.2059 -2.76054,0.92514 0.70042,0.50883 2.81076,1.2899 4.68964,1.73571 2.06155,0.48916 4.06196,1.72826 5.04483,3.12486 0.89578,1.27286 1.93181,2.48786 2.30229,2.7 0.37046,0.21215 0.8532,1.08 1.07274,1.92858 0.58326,2.25439 4.71626,2.46217 5.50299,0.27665 0.60985,-1.69413 0.67229,-1.70098 2.79319,-0.30663 3.49466,2.29752 2.96055,7.15687 -1.14559,10.42276 -2.88909,2.2979 -4.08281,2.67291 -9.29166,2.919 -4.43552,0.20954 -6.92097,-0.096 -9.63862,-1.18496 z m -7.56174,-26.2447 c 3.27954,-1.98895 3.56278,-2.51108 3.56278,-6.56748 0,-3.15902 -0.54055,-4.84068 -1.90913,-5.93927 -2.76228,-2.21736 -8.03408,-2.00346 -11.21331,0.45496 -2.18014,1.68586 -2.62819,2.91512 -2.9523,8.1 l -0.38211,6.11252 4.66565,0 c 3.55444,0 5.51419,-0.51462 8.22842,-2.16073 z m 63.78796,27.02301 c -1.46012,-0.13241 -3.73627,-0.63457 -5.05813,-1.11591 -2.70228,-0.98402 -17.6946,-1.29037 -20.95854,-0.42826 -1.1681,0.30853 -2.8216,0.24294 -3.67445,-0.14576 -1.33697,-0.60935 -1.29973,-0.90813 0.27029,-2.16842 3.73806,-3.00064 5.1955,-9.04312 4.83176,-20.03229 -0.18871,-5.70128 -0.70658,-10.52916 -1.15083,-10.72862 -0.44424,-0.19945 -0.80772,-0.98963 -0.80772,-1.75594 0,-0.76632 -1.00145,-2.31818 -2.22545,-3.44859 -1.22399,-1.1304 -1.95577,-2.56579 -1.62618,-3.18974 0.67827,-1.28406 4.44712,-1.53536 5.44448,-0.36304 0.97026,1.14047 14.0603,0.98596 14.59173,-0.17223 0.62507,-1.36227 29.64302,-1.38204 30.27125,-0.0206 0.24473,0.53036 1.08725,0.96429 1.87225,0.96429 1.63105,0 5.82906,3.59773 5.82906,4.99556 0,0.51169 -2.74768,1.37454 -6.10595,1.91744 -3.35827,0.5429 -6.42792,1.35689 -6.82144,1.80887 -1.08708,1.24854 -4.06309,-0.87274 -4.06309,-2.89614 0,-4.54134 -9.69988,-6.74154 -13.6476,-3.09566 -2.09908,1.9386 -3.95877,9.72424 -3.17869,13.30775 0.35222,1.61803 0.55166,1.57818 5.02931,-1.00506 5.57801,-3.21805 7.72704,-3.31943 14.54448,-0.68612 4.36617,1.68648 6.01198,1.92433 10.3936,1.50209 l 5.20599,-0.50169 -0.59816,3.23969 c -0.87391,4.73319 -3.77938,6.4847 -10.75704,6.4847 -4.72799,0 -6.50585,-0.4246 -10.49767,-2.50714 -9.27899,-4.84087 -12.92579,-3.09786 -12.92579,6.17793 0,6.07691 0.0483,6.18742 3.66257,8.37938 3.90774,2.36994 7.91314,2.80095 10.86893,1.16958 2.28199,-1.25949 4.25225,-4.92464 3.53268,-6.57164 -0.47622,-1.08999 0.73107,-1.24811 9.5301,-1.24811 9.55028,0 10.07539,0.085 10.07539,1.63168 0,2.71023 -7.30519,8.70445 -10.67214,8.75695 -0.90528,0.0141 -2.12469,0.37344 -2.70982,0.79852 -1.06028,0.77025 -13.43045,1.40401 -18.47518,0.94656 z m -225.97334,-1.10228 c -1.82313,-1.32442 -1.58078,-2.49081 0.84952,-4.08857 1.16809,-0.76795 2.12381,-1.96732 2.12381,-2.66528 0,-0.69795 0.58693,-1.69539 1.3043,-2.21653 1.87178,-1.35977 1.89322,-24.94377 0.0231,-25.39671 -0.73006,-0.17681 -1.32738,-0.78663 -1.32738,-1.35515 0,-0.56852 -1.10246,-2.01495 -2.4499,-3.21429 -3.61638,-3.21888 -2.72484,-4.59539 2.74693,-4.24123 2.46484,0.15954 4.9355,0.60166 5.49034,0.98249 1.30404,0.89505 10.89842,0.90322 11.65837,0.01 0.98334,-1.15584 7.12244,-1.48464 7.68914,-0.41182 0.55944,1.05909 -1.4363,4.25612 -3.16827,5.07527 -1.5161,0.71707 -1.63038,29.06473 -0.12011,29.79596 0.62664,0.30341 1.45206,1.16702 1.83425,1.91914 0.38218,0.75213 1.54196,1.55854 2.57731,1.79203 1.03532,0.23349 2.71866,0.74928 3.74075,1.14618 1.23432,0.47934 2.66062,0.39567 4.24761,-0.24917 5.01397,-2.03729 6.10595,-3.11965 6.10595,-6.05213 0,-2.38357 -0.60448,-3.22632 -3.32272,-4.63242 -2.70378,-1.39862 -3.69014,-1.5521 -5.29512,-0.82396 -2.6803,1.21601 -4.12498,1.12415 -4.12498,-0.26231 0,-0.63643 -0.47785,-1.15714 -1.0619,-1.15714 -2.2311,0 -0.96954,-4.38151 2.00741,-6.972 2.8787,-2.50497 3.46697,-2.67086 9.4716,-2.67086 5.27817,0 6.87373,0.32176 9.08749,1.83259 1.47688,1.00793 2.98572,2.82645 3.35297,4.04116 0.36726,1.2147 1.10883,2.4066 1.64795,2.64865 1.77481,0.79684 1.02239,6.41853 -1.25677,9.38985 -3.07745,4.01205 -4.04377,4.78395 -8.61087,6.87839 -3.37103,1.54593 -5.34487,1.82365 -12.96125,1.82365 -4.94154,0 -9.27995,-0.34714 -9.64091,-0.77143 -0.36097,-0.42429 -4.83324,-0.77143 -9.93839,-0.77143 -5.10515,0 -9.75995,0.34714 -10.34399,0.77143 -0.70795,0.51429 -1.48667,0.46286 -2.33619,-0.15429 z m 79.43046,-0.79722 c -3.21226,-0.86299 -5.99976,-1.86979 -6.19443,-2.23735 -0.1947,-0.36756 -0.94764,-0.66828 -1.67323,-0.66828 -2.34936,0 -6.84803,-4.03865 -10.31163,-9.25715 -1.81785,-2.7389 -2.46576,-12.79254 -1.04623,-16.23447 1.61824,-3.92373 9.95189,-10.48793 15.93631,-12.5526 7.4639,-2.57511 19.87245,-2.38694 27.87079,0.42265 7.89228,2.77233 14.11232,7.91356 15.81609,13.07293 1.71467,5.19241 0.71992,13.40607 -2.09951,17.33562 -3.57968,4.98913 -12.74018,10.28958 -17.7938,10.29585 -1.27964,0.002 -2.62195,0.35002 -2.98292,0.77431 -1.08633,1.27691 -11.28902,0.72284 -17.52143,-0.95151 z m 16.62429,-4.64135 c 3.83829,-3.13096 7.45139,-16.66171 4.77057,-17.86534 -0.49784,-0.22351 -1.20038,-2.70307 -1.5612,-5.51012 -0.672,-5.22766 -3.53161,-9.80934 -6.66818,-10.68371 -3.15503,-0.87952 -7.53357,-0.45677 -9.19457,0.88774 -4.62976,3.7476 -6.39004,17.76626 -3.33407,26.55198 2.13286,6.13182 4.78918,8.35517 9.98222,8.35517 2.68262,0 4.53309,-0.53485 6.00523,-1.73572 z m -252.36715,4.16041 c 0,-0.36356 -2.38929,-2.98301 -5.30953,-5.82098 -2.92023,-2.83798 -5.30952,-5.33231 -5.30952,-5.54297 0,-0.21065 -0.46598,-0.80228 -1.03553,-1.31473 -0.56954,-0.51245 -2.16945,-1.94679 -3.55535,-3.18743 l -2.51982,-2.2557 -3.93827,3.79856 c -11.54247,11.133 -13.37484,12.99296 -13.37484,13.57625 0,1.77531 -2.11078,0.27641 -3.17735,-2.25626 -0.67003,-1.59108 -1.6285,-3.58715 -2.12993,-4.43572 -0.50143,-0.84857 -1.48799,-3.45214 -2.19233,-5.78571 -0.70434,-2.33358 -1.86942,-5.11072 -2.58906,-6.17143 -0.71964,-1.06072 -1.65399,-3.31715 -2.07634,-5.01429 -0.42234,-1.69714 -1.12404,-3.43286 -1.55933,-3.85714 -0.43529,-0.42429 -1.40143,-2.85429 -2.14699,-5.40001 -0.74556,-2.54571 -1.82137,-5.04729 -2.39068,-5.55906 -1.69286,-1.52176 0.0679,-2.54094 4.38989,-2.54094 4.82009,0 5.95385,0.8503 6.94301,5.20715 0.4094,1.80321 1.18021,3.27857 1.71293,3.27857 0.5327,0 0.96856,0.75642 0.96856,1.68094 0,1.73202 1.72769,6.23073 3.24343,8.44552 0.4724,0.69027 1.18371,2.51277 1.58068,4.05 0.39698,1.53723 1.11546,2.79497 1.59663,2.79497 0.48118,0 2.21996,-1.42837 3.86397,-3.17415 1.64401,-1.74578 3.82535,-3.82864 4.84743,-4.62857 1.02209,-0.79993 1.87423,-1.71478 1.89367,-2.033 0.0194,-0.31821 1.02553,-1.4433 2.23577,-2.50019 l 2.20045,-1.92163 2.07886,1.92163 c 1.14337,1.05689 4.31852,4.16737 7.05589,6.91217 2.73737,2.7448 5.45323,4.93223 6.03526,4.86095 0.58202,-0.0713 1.42785,-1.42199 1.87962,-3.00157 0.45176,-1.57958 1.20946,-3.24629 1.68378,-3.7038 0.47432,-0.45751 1.51877,-2.9147 2.321,-5.46041 0.80224,-2.54572 2.07414,-5.49643 2.82645,-6.55715 0.75232,-1.06071 1.37079,-2.68625 1.37438,-3.6123 0.007,-1.90302 2.36721,-2.68808 7.26514,-2.41696 3.49377,0.19339 3.44135,0.008 1.59593,5.64355 -1.11094,3.39258 -5.87406,14.72873 -6.64471,15.81429 -0.45181,0.63643 -1.46045,3.50035 -2.24142,6.36428 -0.78096,2.86393 -1.74483,5.20715 -2.14193,5.20715 -0.39708,0 -1.33042,2.08285 -2.07409,4.62857 -0.74366,2.54571 -1.76467,4.62857 -2.26891,4.62857 -0.50424,0 -0.9168,-0.29746 -0.9168,-0.66102 z m 33.67096,-1.46041 c -2.11074,-1.16678 -4.33804,-3.12787 -4.94957,-4.35797 -1.5924,-3.20314 -1.4406,-26.075 0.19098,-28.77716 1.68824,-2.79597 4.7696,-4.79548 8.18465,-5.31105 1.49842,-0.22622 3.55417,-0.73748 4.56833,-1.13613 1.01416,-0.39866 10.9297,-0.72484 22.03453,-0.72484 l 20.1906,0 0,4.24286 0,4.24286 -22.26264,0 c -21.35489,0 -22.31014,0.0645 -23.42738,1.58101 -0.6406,0.86955 -1.0158,2.51848 -0.83378,3.66428 l 0.33094,2.08328 18.05238,0.13537 18.05238,0.13537 0.32366,3.52892 0.32366,3.52891 -18.64152,0 -18.64151,0 0,4.89473 c 0,7.53637 -0.29977,7.44813 25.30385,7.44813 l 21.41996,0 0,3.47143 0,3.47143 -23.19091,0 -23.1909,0 -3.8377,-2.12143 z m 60.54123,1.64829 c -0.92008,-0.6684 -1.00791,-37.74575 -0.0953,-40.21972 0.62923,-1.70572 0.9259,-1.73572 17.16605,-1.73572 21.05426,0 26.84536,1.15272 31.50859,6.27179 2.90131,3.18492 3.52467,7.43465 1.44532,9.85345 -1.04855,1.21972 -0.67306,1.97088 2.38929,4.77976 3.32062,3.04576 3.63335,3.77861 3.63335,8.51438 0,5.60067 -1.51464,7.88728 -7.30818,11.03296 -2.70684,1.46972 -4.64,1.6083 -25.45196,1.82453 -12.38743,0.1287 -22.86667,-0.016 -23.2872,-0.32143 z m 44.24477,-8.19755 c 1.01446,-0.73817 2.11098,-2.53516 2.43671,-3.99333 0.48138,-2.15496 0.0807,-3.0228 -2.14054,-4.63645 -2.69247,-1.95596 -2.96739,-1.98525 -18.63576,-1.98525 -18.20899,0 -16.91421,-0.63552 -16.21816,7.96041 l 0.36349,4.48899 16.17489,-0.24613 c 13.65856,-0.20784 16.46184,-0.45492 18.01937,-1.58824 z m -4.79694,-19.37821 c 2.05289,-1.58746 2.19062,-2.0809 1.07656,-3.85715 l -1.27748,-2.03681 -14.67598,0 -14.67599,0 -0.68595,1.98546 c -0.37728,1.092 -0.1577,2.82771 0.48796,3.85714 1.15039,1.83419 1.43656,1.87169 14.28538,1.87169 12.40465,0 13.23837,-0.0981 15.4655,-1.82033 z m -262.627989,11.793 c -0.30555,-0.60568 -0.6815,-5.09339 -0.83545,-9.97267 l -0.27992,-8.87143 -12.74286,0 c -12.40633,0 -12.75182,0.0458 -13.08219,1.73571 -0.44105,2.25603 -1.83216,2.19402 -4.91038,-0.21887 -2.42378,-1.89991 -2.83081,-1.94847 -14.55048,-1.73572 l -12.056947,0.21888 -0.329578,2.89285 c -0.334927,2.9398 -0.838923,3.25876 -3.831192,2.42461 -2.60833,-0.72712 -2.295692,-12.99081 0.519301,-20.37034 3.349172,-8.77989 7.856137,-14.28858 17.407446,-21.27647 9.42641,-6.89651 18.86365,-10.84801 31.34478,-13.12448 9.79997,-1.78744 27.955339,-1.17164 36.593099,1.2412 26.04395,7.27499 42.59516,23.05502 44.7093,42.62617 0.78458,7.26298 -0.39202,10.60074 -3.73687,10.60074 -1.74931,0 -2.15009,-0.50328 -2.15009,-2.7 l 0,-2.7 -12.21191,0 c -10.79603,0 -12.45814,0.17888 -14.33571,1.54286 -1.1681,0.84857 -2.8406,1.54286 -3.71667,1.54286 -0.88492,0 -1.59286,-0.68572 -1.59286,-1.54286 0,-1.45608 -0.70794,-1.54286 -12.58701,-1.54286 l -12.587019,0 -0.73887,9.06429 c -0.50318,6.1729 -1.21791,9.41557 -2.24063,10.16553 -1.30102,0.95404 -1.57602,0.95404 -2.05729,0 z m -32.43353,-25.97982 c 0.008,-2.73271 1.49119,-10.85669 2.67671,-14.65714 0.53465,-1.71393 0.40283,-1.73572 -10.49877,-1.73572 -7.54004,0 -11.387479,0.30572 -12.135559,0.96429 -1.75272,1.54299 -5.623442,10.52896 -6.286031,14.59314 l -0.607827,3.72829 13.421727,0 13.42173,0 0.008,-2.89286 z m 31.84911,-6.75 0,-9.64286 -11.68095,0 c -6.42452,0 -11.68094,0.14304 -11.68094,0.31785 0,0.17482 -0.71671,3.03875 -1.59268,6.36429 -0.87597,3.32554 -1.59275,7.52179 -1.59286,9.32501 l -1.8e-4,3.27857 13.2738,0 13.27381,0 0,-9.64286 z m 30.750249,4.43571 c -0.0247,-2.86392 -0.65735,-7.11642 -1.40579,-9.45 l -1.36081,-4.24285 -11.86801,-0.21813 -11.868019,-0.21812 0,9.66812 0,9.66813 13.273809,0 13.27381,0 -0.045,-5.20715 z m 32.13185,2.50715 c -0.51561,-3.96115 -2.58771,-9.83133 -4.68769,-13.28008 l -2.01284,-3.30564 -11.23925,0 -11.23924,0 0.70967,2.89286 c 0.39032,1.59107 0.9698,5.49643 1.28774,8.67857 0.31793,3.18214 0.76856,6.23038 1.0014,6.77387 0.32074,0.74867 3.58088,0.93563 13.4524,0.77143 l 13.02905,-0.21673 -0.30124,-2.31428 z M 65.293391,915.05322 c 2.07196,-3.2578 4.95357,-7.05321 6.40357,-8.43425 1.45001,-1.38103 2.63638,-2.70489 2.63638,-2.94191 0,-0.603 -8.06615,1.8071 -13.79463,4.12172 -5.31725,2.14846 -18.06252,10.7899 -18.06252,12.24661 0,0.65798 2.79398,0.9311 9.525,0.9311 l 9.52499,0 3.76721,-5.92327 z m 23.90661,-3.71959 c 0,-5.30357 -0.26266,-9.64286 -0.58368,-9.64286 -1.8653,0 -6.99116,2.6268 -10.26875,5.26231 -3.16947,2.54858 -10.38566,11.96698 -10.38566,13.55513 0,0.25755 4.77857,0.46828 10.61905,0.46828 l 10.61904,0 0,-9.64286 z m 25.462399,8.67857 c -0.042,-1.73607 -4.16522,-7.64197 -7.9508,-11.3883 -3.8379,-3.79812 -6.763839,-5.54383 -10.874689,-6.48821 l -2.38929,-0.54889 0,9.69484 0,9.69485 10.619049,0 c 7.79974,0 10.61286,-0.25602 10.59573,-0.96429 z m 25.60986,-0.44171 c -3.34876,-4.54559 -17.06834,-12.22056 -26.4981,-14.82347 l -5.49949,-1.51804 3.55634,3.75579 c 1.95598,2.06568 4.90373,6.05887 6.55054,8.87375 l 2.99421,5.11797 9.96615,0 c 9.31372,0 9.89834,-0.0921 8.93035,-1.406 z"
       style="fill:#ac8d73" />
    <path
       inkscape:connector-curvature="0"
       id="path3395"
       d="m 85.347921,1028.5304 c -10.45899,-9.9615 -42.5451,-25.1076 -71.012204,-33.5208 -4.6723806,-1.38089 -8.8397496,-2.72874 -9.2608206,-2.99521 -0.584671,-0.37001 10.9902966,-32.08856 13.4487986,-36.85335 0.352136,-0.68247 2.176491,-0.58135 7.168376,0.39732 5.938871,1.16433 6.696027,1.52954 6.696027,3.22974 0,1.78151 -0.318781,1.89866 -4.511445,1.65789 -3.083747,-0.17709 -4.652906,0.067 -4.958453,0.77143 -3.479666,8.02181 -10.119603,27.98424 -9.458125,28.43508 0.481603,0.32825 6.132071,2.29301 12.556595,4.36614 29.245261,9.43716 52.927951,22.51876 60.550381,33.44626 3.1551,4.5231 2.76715,4.8621 -1.21913,1.0655 z m 8.67856,-0.9587 c 3.64791,-4.9476 13.029969,-12.536 21.071209,-17.0428 9.07268,-5.0849 27.10463,-12.61088 40.11117,-16.74127 6.46983,-2.05458 11.96217,-4.11202 12.2052,-4.5721 0.24302,-0.46007 -1.91818,-7.06313 -4.80267,-14.67347 l -5.24453,-13.83699 -4.33408,0.0657 c -3.4005,0.0516 -4.47462,-0.25596 -4.98654,-1.42765 -0.88415,-2.0237 0.12776,-2.56494 7.31873,-3.91455 6.05009,-1.13548 6.18528,-1.12566 7.11067,0.51664 2.66401,4.72782 13.85272,35.49446 13.09225,36.00095 -0.48651,0.32402 -6.32632,2.26266 -12.97738,4.30808 -24.89535,7.65616 -47.97498,18.34596 -62.881349,29.12466 l -8.70911,6.2976 3.02643,-4.1048 z m 0.48339,-13.6381 c 8.498039,-10.4252 21.925469,-18.90712 40.717759,-25.72081 l 9.91078,-3.59344 -4.67607,-12.72857 c -5.99999,-16.33242 -5.92103,-16.2 -9.66045,-16.2 -7.53232,0 -19.10757,3.97839 -31.665269,10.88329 l -7.02813,3.86445 3.22576,-2.93816 c 4.29844,-3.91519 8.126039,-6.42228 14.854199,-9.72954 5.49877,-2.70295 18.83285,-6.81936 25.32938,-7.81953 l 3.31068,-0.50969 4.51155,11.80316 c 2.48135,6.49174 5.65065,14.70593 7.04289,18.25375 1.39224,3.54782 2.53134,6.57754 2.53134,6.73271 0,0.15518 -5.00008,1.99551 -11.1113,4.08963 -15.7409,5.39392 -27.80265,11.35815 -39.59538,19.57895 -8.502459,5.9271 -9.791759,6.6027 -7.697749,4.0338 z m -12.25216,-2.0087 c -11.80144,-8.8177 -31.75704,-18.62141 -46.418419,-22.80431 -3.942325,-1.12474 -7.16786,-2.46293 -7.16786,-2.97374 0,-0.51081 1.865629,-5.7499 4.145843,-11.64241 2.280217,-5.89251 5.210747,-13.66437 6.512307,-17.2708 1.301548,-3.60643 2.742049,-6.8587 3.201109,-7.22726 1.25807,-1.01005 12.03739,1.62759 22.61132,5.53285 6.66906,2.46309 11.38114,4.91379 16.25303,8.45301 3.77359,2.74134 6.63643,5.14743 6.3619,5.34686 -0.27452,0.19943 -3.27927,-1.28242 -6.6772,-3.293 -7.8093,-4.62083 -22.27504,-9.70833 -28.92425,-10.17247 l -5.06495,-0.35355 -3.49925,9.14964 c -1.92458,5.0323 -4.430249,11.5261 -5.568149,14.43067 -1.13789,2.90458 -1.86213,5.43126 -1.6094,5.61485 0.25272,0.18359 4.351518,1.7011 9.108439,3.37223 16.38154,5.75495 29.7531,13.50923 37.25284,21.60333 7.04617,7.6045 6.99074,7.8439 -0.51732,2.2341 z M 544.62415,984.00257 c -4.58446,-1.91325 -8.00635,-6.37781 -8.93838,-11.66196 -0.93745,-5.3148 -3.04837,-7.39269 -7.51026,-7.39269 l -3.59454,0 0.007,5.59286 c 0.005,4.2836 0.50089,6.13462 2.11682,7.90715 2.74232,3.00809 2.89952,6.19098 0.26547,5.37533 -3.41007,-1.05596 -19.98591,-1.36395 -22.42251,-0.41663 -1.8732,0.72828 -2.41594,0.6708 -2.93442,-0.31072 -0.61023,-1.15525 0.27634,-3.37282 3.44691,-8.62171 1.01511,-1.68125 1.46792,-5.68946 1.46792,-12.99771 0,-10.69217 -0.93271,-13.95681 -4.9822,-17.43844 -0.79224,-0.68114 -1.13886,-1.80935 -0.77027,-2.50714 0.74508,-1.41051 2.56676,-1.72928 2.56676,-0.44915 0,0.80364 7.03995,0.70099 32.78714,-0.4781 6.49691,-0.29753 10.35255,-0.16802 11.09691,0.37273 0.62739,0.45577 2.01342,0.82867 3.08009,0.82867 1.06665,0 4.07715,1.55301 6.69001,3.45113 4.08952,2.97088 4.75062,3.89362 4.75062,6.63092 0,3.37202 -3.26064,7.66081 -5.82429,7.66081 -0.78764,0 -1.59425,0.35347 -1.79248,0.78549 -0.19823,0.43202 -2.86924,1.00134 -5.93559,1.26517 -4.54083,0.39068 -5.3528,0.67431 -4.37662,1.52879 0.65921,0.57702 1.87364,1.04912 2.69875,1.04912 3.04315,0 6.44399,2.42363 7.86186,5.60284 1.35378,3.03544 3.57876,5.11425 5.53631,5.17263 0.45249,0.0135 1.3009,-0.88914 1.88534,-2.00585 1.02938,-1.96689 1.12819,-1.98727 3.15944,-0.65186 1.42205,0.9349 2.0968,2.37147 2.0968,4.46411 0,2.60171 -0.67313,3.55078 -4.29233,6.05187 -3.79595,2.62324 -4.87047,2.95659 -9.29167,2.88261 -2.93889,-0.0492 -6.58595,-0.74582 -8.84902,-1.69027 z m -8.0233,-25.24598 c 2.88563,-1.23684 3.78739,-2.20498 4.32385,-4.64215 1.33394,-6.06006 -1.61175,-9.99509 -7.48211,-9.99509 -6.08596,0 -8.12382,2.30223 -8.66473,9.78881 l -0.4632,6.41119 4.32008,0 c 2.43062,0 5.91473,-0.6835 7.9661,-1.56276 z m 57.5349,24.9685 c -7.22366,-1.06888 -16.41168,-1.08155 -19.64524,-0.0271 -0.87607,0.28569 -2.29065,0.19713 -3.1435,-0.1968 -1.34836,-0.62281 -1.33141,-0.89846 0.12998,-2.11332 4.59827,-3.82256 5.51451,-6.97512 5.39707,-18.56995 -0.0688,-6.79908 -0.55851,-11.50991 -1.24843,-12.01111 -0.62432,-0.45354 -1.13512,-1.40267 -1.13512,-2.10916 0,-0.7065 -0.95572,-2.16718 -2.12382,-3.24596 -1.16809,-1.07879 -2.12381,-2.25382 -2.12381,-2.61118 0,-0.35736 5.71039,-0.64975 12.68976,-0.64975 8.73594,0 13.10334,-0.30045 14.01714,-0.96429 1.56683,-1.13823 19.55529,-1.35957 20.49738,-0.25221 0.33318,0.39165 2.02737,0.9389 3.76484,1.21613 3.26769,0.52138 8.03942,4.4523 6.95374,5.72844 -0.33892,0.39837 -3.25809,1.15381 -6.48705,1.67876 -3.22896,0.52494 -6.13049,1.25966 -6.44786,1.63269 -0.93764,1.10213 -3.57366,-0.98393 -3.57366,-2.82808 0,-2.65295 -4.44156,-5.21017 -8.53953,-4.91661 -5.36452,0.38428 -7.45764,3.08945 -8.16134,10.54776 -0.3262,3.45729 -0.22432,6.28598 0.22639,6.28598 0.4507,0 2.67072,-1.215 4.93336,-2.7 4.92322,-3.23116 7.24121,-3.34275 14.12635,-0.68011 4.34905,1.68188 6.10289,1.9442 10.48039,1.56757 l 5.25729,-0.45233 -0.54952,2.97623 c -0.82475,4.46696 -4.35727,6.61721 -10.871,6.61721 -4.26283,0 -6.28927,-0.49424 -10.27943,-2.50714 -5.23271,-2.63972 -9.39053,-3.18739 -11.32734,-1.49205 -1.86106,1.62904 -2.63138,9.08173 -1.30747,12.64952 2.71296,7.31113 14.43,7.68734 18.14828,0.58271 0.54434,-1.04009 0.75958,-2.32801 0.47831,-2.86205 -0.38763,-0.73601 1.80403,-0.97099 9.05639,-0.97099 10.2797,0 10.61503,0.16533 8.01499,3.95157 -4.99175,7.26907 -17.83969,9.59145 -37.20754,6.7256 z m -219.21669,-0.1343 c -1.86759,-0.42554 -1.2871,-1.85251 1.66385,-4.0901 2.40308,-1.82215 2.93856,-3.14756 3.84066,-9.50623 0.57653,-4.06387 0.70879,-10.34925 0.2939,-13.9675 -0.66745,-5.82083 -1.15775,-6.96256 -4.2564,-9.91158 -1.92613,-1.83313 -3.19551,-3.67598 -2.82084,-4.09524 0.44833,-0.50169 3.3436,-0.49679 8.46879,0.0143 5.33795,0.53233 9.68031,0.5212 13.80476,-0.0354 7.35083,-0.99199 8.85947,-0.2578 5.74948,2.79803 -1.90995,1.87669 -2.38731,3.75513 -3.00428,11.82193 -1.01151,13.2255 -2.6e-4,19.40874 3.63146,22.20448 1.55444,1.19662 4.0525,2.3733 5.55124,2.61485 3.82116,0.61584 9.72794,-1.84654 10.68851,-4.45576 0.93688,-2.54487 -0.84973,-6.63469 -2.89834,-6.63469 -0.81893,0 -1.48897,-0.34714 -1.48897,-0.77142 0,-1.05609 -2.77699,-0.96994 -5.27564,0.16365 -2.85598,1.2957 -3.75055,0.32646 -3.75055,-4.06366 0,-5.4341 2.79154,-7.28571 10.98416,-7.28571 5.45202,0 6.47698,0.25896 9.0701,2.29161 1.60792,1.26039 3.19111,3.26368 3.5182,4.45177 0.3271,1.18808 1.01085,2.34699 1.51946,2.57534 1.20083,0.53915 1.19233,4.59153 -0.0133,6.31318 -0.51591,0.73674 -1.5683,2.31579 -2.33864,3.50899 -0.77035,1.19321 -3.33485,3.20459 -5.69889,4.46975 l -4.29827,2.30029 -20.90597,-0.22689 c -11.49828,-0.1248 -21.41382,-0.34261 -22.03452,-0.48403 z m 81.16906,0.12835 c -2.89367,-0.58973 -11.2693,-4.18864 -13.25208,-5.69425 -3.03706,-2.30617 -6.02674,-5.74751 -7.27206,-8.37065 -2.42793,-5.11418 -0.97003,-17.8206 2.04469,-17.8206 0.52691,0 0.95802,-0.44844 0.95802,-0.99653 0,-1.75275 8.87763,-7.28306 13.27381,-8.26891 2.33619,-0.52389 5.07738,-1.25706 6.09154,-1.62926 2.40685,-0.88333 10.94472,-0.87081 13.30264,0.0195 1.01416,0.38293 3.87481,1.13278 6.35701,1.66633 2.48221,0.53355 4.5131,1.26167 4.5131,1.61804 0,0.35638 0.62303,0.64796 1.38454,0.64796 1.90667,0 7.2327,4.38269 9.78049,8.04818 3.22858,4.64495 2.91617,15.87598 -0.55938,20.10896 -2.95418,3.598 -6.09343,5.89754 -11.78915,8.63575 -3.46317,1.6649 -5.54596,2.0098 -13.40481,2.21974 -5.1175,0.13671 -10.26026,0.0538 -11.42836,-0.18428 z m 13.91591,-3.97975 c 4.69894,-2.85349 6.26673,-6.85639 6.1721,-15.75866 -0.0485,-4.56267 -0.5756,-9.07553 -1.17135,-10.02857 -0.59575,-0.95305 -1.75071,-3.29495 -2.56658,-5.20424 -1.23484,-2.88972 -2.09396,-3.61479 -5.12699,-4.32695 -4.90252,-1.15112 -7.07799,-0.60674 -10.46436,2.61856 -2.79802,2.66494 -2.85721,2.95324 -2.86974,13.97901 -0.0106,9.38606 0.31674,11.77103 1.96912,14.34367 3.53388,5.50202 9.26624,7.28692 14.0578,4.37718 z m -218.63918,0.69385 -4.47197,-3.02897 -0.36133,-13.36389 c -0.40207,-14.87122 0.13772,-16.51713 6.56643,-20.02207 3.24688,-1.7702 4.07662,-1.83563 26.44847,-2.0856 l 23.09643,-0.25807 0,3.92236 0,3.92235 -22.71734,0 c -25.08521,0 -24.00647,-0.22815 -24.00647,5.07738 l 0,2.63691 18.64439,0 18.64439,0 -0.32653,3.27857 -0.32654,3.27857 -18.31786,0.21107 -18.31785,0.21108 0,4.66107 c 0,8.02091 -1.20159,7.64535 24.46117,7.64535 l 22.26264,0 0,3.47143 0,3.47143 -23.40302,0 -23.40304,0 -4.47197,-3.02897 z m 61.77213,2.68106 c -0.2634,-0.19135 -0.36214,-3.22885 -0.21942,-6.75 0.14272,-3.52115 0.27858,-12.73745 0.30192,-20.48066 l 0.0425,-14.07858 17.25595,0.0184 c 19.43049,0.0207 23.91252,0.53461 27.58599,3.16285 5.41931,3.87733 8.09423,9.73128 5.06758,11.09018 -1.32407,0.59447 -1.41083,4.24285 -0.10088,4.24285 0.52855,0 2.20105,1.53718 3.71667,3.41594 5.18649,6.42921 2.51021,13.86205 -6.42806,17.85269 -3.93924,1.75874 -4.87664,1.82697 -25.41667,1.85016 -11.72963,0.0133 -21.5421,-0.13249 -21.80551,-0.32384 z m 44.24226,-8.48846 c 3.46015,-2.51364 3.44869,-6.05051 -0.0278,-8.57601 -2.60362,-1.89142 -2.82284,-1.9112 -18.84881,-1.70065 l -16.21449,0.21303 -0.32014,4.93303 c -0.17607,2.71317 -0.0716,5.40353 0.23215,5.97857 0.43093,0.8158 4.07034,1.04554 16.56245,1.04554 15.58257,0 16.07978,-0.0506 18.61666,-1.89351 z m -4.53188,-18.94388 c 2.17784,-1.84777 2.25532,-2.98956 0.32812,-4.83497 -1.27322,-1.21919 -3.07703,-1.34835 -16.16027,-1.15715 l -14.72709,0.21522 -0.3403,2.58058 c -0.62363,4.72913 -0.56427,4.748 14.93763,4.748 12.84574,0 14.29963,-0.14134 15.96191,-1.55168 z m -137.01521,23.46119 c -1.89815,-1.83169 -3.45119,-3.51853 -3.45119,-3.74851 0,-0.22998 -0.74794,-1.02564 -1.66208,-1.76814 -0.91415,-0.7425 -3.31151,-2.98579 -5.32745,-4.98508 -2.07662,-2.05944 -4.23298,-3.4525 -4.97483,-3.21386 -1.43644,0.46206 -11.37127,9.90564 -11.4407,10.87498 -0.0892,1.24595 -6.19206,5.76902 -7.18339,5.32394 -0.56887,-0.2554 -1.65256,-2.72399 -2.40822,-5.48575 -0.75566,-2.76176 -1.72211,-5.02138 -2.14766,-5.02138 -0.42556,0 -1.10413,-1.47535 -1.50793,-3.27857 -0.40378,-1.80321 -1.34964,-4.32 -2.10188,-5.59286 -0.75224,-1.27285 -1.94175,-4.05 -2.64334,-6.17143 -0.70161,-2.12143 -1.68665,-4.55143 -2.18901,-5.4 -0.99723,-1.68453 -3.1219,-7.33994 -3.1314,-8.33512 -0.003,-0.34146 2.25961,-0.51504 5.02858,-0.38572 4.08342,0.19071 5.09638,0.52659 5.36206,1.77798 0.54848,2.58346 5.70533,15.27155 7.25866,17.85945 0.80249,1.33698 1.45907,2.98591 1.45907,3.66429 0,0.67837 0.71678,1.23341 1.59285,1.23341 0.87607,0 1.59286,-0.28647 1.59286,-0.63659 0,-0.35012 2.03089,-2.56795 4.5131,-4.92851 2.4822,-2.36056 5.40981,-5.19212 6.50581,-6.29237 l 1.9927,-2.00044 5.17514,4.96622 c 2.84634,2.73143 5.17516,5.1512 5.17516,5.37728 0,0.8516 3.70813,3.51441 4.89405,3.51441 0.67998,0 1.49221,-0.95464 1.80494,-2.12143 0.31274,-1.16678 1.53246,-4.37786 2.7105,-7.13571 1.17804,-2.75786 3.0535,-7.27072 4.16769,-10.02858 l 2.02582,-5.01428 4.41041,-0.23722 c 4.14768,-0.22308 4.41041,-0.11514 4.41041,1.81199 0,1.12706 -0.67479,3.14309 -1.49952,4.48007 -0.82474,1.33698 -2.08367,4.3037 -2.79762,6.59272 -0.71395,2.28901 -1.94765,5.06616 -2.74155,6.17143 -0.79391,1.10527 -1.44641,2.82498 -1.45001,3.82157 -0.003,0.99659 -0.68133,2.90588 -1.50606,4.24286 -0.82474,1.33697 -2.08751,4.34015 -2.80616,6.67372 -2.11611,6.87135 -3.04693,7.31586 -7.1098,3.39523 z M 89.784421,967.20631 c -0.30555,-0.60568 -0.6815,-5.09339 -0.83545,-9.97267 l -0.27992,-8.87143 -12.74286,0 c -12.40632,0 -12.75181,0.0458 -13.08218,1.73571 -0.44105,2.25603 -1.83216,2.19402 -4.91038,-0.21887 -2.42378,-1.89991 -2.83081,-1.94847 -14.55049,-1.73572 l -12.056947,0.21888 -0.329578,2.89285 c -0.334927,2.9398 -0.838923,3.25876 -3.831192,2.42461 -2.60833,-0.72712 -2.295692,-12.99081 0.519301,-20.37034 3.349172,-8.77989 7.856137,-14.28858 17.407446,-21.27647 14.22455,-10.40689 29.07621,-14.62877 49.34496,-14.02727 18.146749,0.53852 31.982139,5.02647 44.720369,14.50648 11.09285,8.25549 17.2321,18.41934 18.6257,30.83585 0.74943,6.67714 -0.51405,10.02857 -3.78072,10.02857 -1.74931,0 -2.15009,-0.50328 -2.15009,-2.7 l 0,-2.7 -12.21191,0 c -10.79603,0 -12.45814,0.17888 -14.33571,1.54286 -2.74243,1.99226 -5.30953,1.98078 -5.30953,-0.0238 0,-1.50104 -0.54433,-1.55753 -13.00833,-1.35 l -13.008339,0.21661 -0.2735,8.84971 c -0.20115,6.50833 -0.68249,9.14682 -1.81932,9.97268 -1.3327,0.96815 -1.62239,0.97114 -2.10133,0.0217 z m -32.43353,-25.97982 c 0.008,-2.73271 1.49119,-10.85669 2.67671,-14.65714 0.53465,-1.71393 0.40283,-1.73572 -10.49877,-1.73572 -7.56386,0 -11.371049,0.30364 -12.090899,0.96429 -1.99998,1.83551 -5.570258,9.88532 -6.251244,14.0945 l -0.683856,4.22693 13.420019,0 13.42002,0 0.008,-2.89286 z m 31.84911,-6.75 0,-9.64286 -11.68095,0 c -6.42452,0 -11.68094,0.14304 -11.68094,0.31785 0,0.17482 -0.71671,3.03875 -1.59268,6.36429 -0.87597,3.32554 -1.59275,7.52179 -1.59286,9.32501 l -1.8e-4,3.27857 13.2738,0 13.27381,0 0,-9.64286 z m 30.750249,4.43571 c -0.0247,-2.86392 -0.65735,-7.11642 -1.40579,-9.45 l -1.36081,-4.24285 -11.86801,-0.21813 -11.868009,-0.21812 0,9.66812 0,9.66813 13.273799,0 13.27381,0 -0.045,-5.20715 z m 32.13185,2.50715 c -0.51561,-3.96115 -2.58771,-9.83133 -4.68769,-13.28008 l -2.01284,-3.30564 -11.23925,0 -11.23924,0 0.70967,2.89286 c 0.39032,1.59107 0.9698,5.49643 1.28774,8.67857 0.31793,3.18214 0.76856,6.23038 1.0014,6.77387 0.32074,0.74867 3.58088,0.93563 13.4524,0.77143 l 13.02905,-0.21673 -0.30124,-2.31428 z M 65.293391,915.05322 c 2.07196,-3.2578 4.95357,-7.05321 6.40357,-8.43425 1.45001,-1.38103 2.63638,-2.70489 2.63638,-2.94191 0,-0.603 -8.06615,1.8071 -13.79463,4.12172 -5.31725,2.14846 -18.06252,10.7899 -18.06252,12.24661 0,0.65798 2.79398,0.9311 9.525,0.9311 l 9.52499,0 3.76721,-5.92327 z m 23.90661,-3.71959 c 0,-5.30357 -0.26266,-9.64286 -0.58367,-9.64286 -1.90979,0 -7.03402,2.66126 -10.51714,5.46203 -3.26353,2.62421 -10.13728,11.72456 -10.13728,13.42104 0,0.22145 4.77857,0.40265 10.61905,0.40265 l 10.61904,0 0,-9.64286 z m 25.462399,8.67857 c -0.0377,-1.56092 -3.86435,-7.24909 -7.3589,-10.93888 -3.39867,-3.58855 -7.445799,-6.04072 -11.466589,-6.94761 l -2.38928,-0.53891 0,9.69484 0,9.69485 10.619039,0 c 7.79974,0 10.61286,-0.25602 10.59573,-0.96429 z m 25.60986,-0.44171 c -3.69335,-5.01333 -19.77229,-13.69033 -28.88846,-15.58964 l -2.89503,-0.60317 4.00848,4.50541 c 2.20466,2.47798 5.08804,6.43771 6.40752,8.79941 l 2.39905,4.29399 10.00212,0 c 9.34852,0 9.93444,-0.0919 8.96632,-1.406 z"
       style="fill:#aa6c4d" />
    <path
       inkscape:connector-curvature="0"
       id="path3393"
       d="m 83.359531,1026.7993 c -13.32704,-10.7684 -41.76593,-23.787 -71.81166,-32.87341 l -7.0354656,-2.12767 1.907841,-5.13229 c 1.049313,-2.82276 3.127539,-8.25658 4.6182796,-12.07515 1.490741,-3.81857 3.774631,-9.80679 5.075311,-13.30714 2.67045,-7.18665 2.990885,-7.32442 11.904075,-5.11815 3.612874,0.8943 4.86562,1.56556 4.436786,2.37738 -0.328654,0.62218 -0.597552,1.37238 -0.597552,1.6671 0,0.29473 -1.907316,0.40373 -4.23848,0.24223 -2.913019,-0.20181 -4.382185,0.0331 -4.698012,0.75104 -1.948995,4.43077 -10.177794,26.8847 -10.177794,27.77216 0,0.61585 1.791964,1.58376 3.982143,2.15092 8.07538,2.09115 30.811058,10.65498 40.086918,15.09958 11.05558,5.2973 24.31558,14.5427 28.56731,19.9183 1.62036,2.0487 2.78451,3.8064 2.58701,3.906 -0.1975,0.1 -2.27052,-1.3632 -4.60671,-3.2509 z m 9.02619,3.3875 c 0,-1.732 6.7938,-8.5003 13.272809,-13.223 11.94541,-8.7072 33.88978,-18.51741 56.01648,-25.04212 3.79603,-1.11937 6.10156,-2.25753 6.09434,-3.00856 -0.006,-0.66443 -2.30771,-7.28305 -5.11406,-14.70805 l -5.10246,-13.5 -4.39021,0 c -3.2528,0 -4.51307,-0.34241 -4.86441,-1.32164 -0.62843,-1.75152 0.85111,-2.52596 7.57949,-3.96739 l 5.61817,-1.20358 1.00364,1.91768 c 0.552,1.05472 1.9558,4.59841 3.11955,7.87487 1.16374,3.27646 4.0234,10.78035 6.35479,16.67531 2.33138,5.89496 4.01874,10.97686 3.74969,11.29312 -0.26905,0.31625 -1.8078,0.814 -3.41945,1.10611 -5.35414,0.97044 -36.77238,12.41065 -45.93742,16.72695 -11.50775,5.4197 -24.17831,12.84 -29.684069,17.3838 -2.36328,1.9505 -4.29688,3.2989 -4.29688,2.9965 z m -12.24039,-19.7515 c -10.05578,-7.3697 -22.66077,-13.72719 -38.35194,-19.34346 -7.217079,-2.58317 -13.121959,-4.88878 -13.121959,-5.12357 0,-1.28164 13.823499,-36.44892 14.327289,-36.44892 0.17362,0 3.59154,0.72854 7.59539,1.61897 11.96907,2.66186 21.38564,6.69792 30.11065,12.90579 8.82538,6.27928 8.41893,6.41452 -2.00311,0.66647 -8.76734,-4.83544 -18.98057,-8.26116 -26.25552,-8.80661 l -5.58086,-0.41844 -1.61766,4.15263 c -2.47396,6.35079 -8.211759,21.68689 -8.819059,23.57176 -0.46978,1.45803 0.61459,2.08059 8.328769,4.7818 17.94159,6.28243 32.36396,14.88588 39.93102,23.82048 1.88658,2.2275 3.30227,4.05 3.14599,4.05 -0.15628,0 -3.61633,-2.4421 -7.68899,-5.4269 z m 15.58827,2.2714 c 3.87078,-5.0421 16.123619,-14.11067 24.448679,-18.09497 4.14752,-1.98497 11.54798,-5.00581 16.44545,-6.71296 6.65051,-2.31822 8.77904,-3.41904 8.40886,-4.34881 -2.10569,-5.28888 -7.09539,-18.40041 -8.65243,-22.73618 l -1.90017,-5.29129 -5.64059,0.33981 c -7.25931,0.43733 -20.80426,5.28871 -30.057989,10.76585 -6.76814,4.00596 -6.82593,4.0228 -3.74898,1.0922 4.58514,-4.36705 14.599879,-9.97263 23.230299,-13.00278 7.30062,-2.56326 19.59416,-5.66315 20.18889,-5.09075 0.29407,0.28303 1.32598,2.9043 9.22008,23.4211 2.44874,6.36429 4.65858,11.96422 4.91074,12.44428 0.25931,0.49368 -4.81428,2.71473 -11.67958,5.11292 -16.11272,5.62852 -28.34552,11.64848 -38.94977,19.16798 -8.054079,5.7111 -8.526769,5.9339 -6.223489,2.9336 z M 547.52353,984.56668 c -2.27482,-0.60561 -4.82466,-1.51628 -5.66629,-2.02372 -2.31961,-1.39849 -5.33151,-6.74249 -6.09361,-10.81179 -0.83916,-4.48084 -3.29515,-6.78432 -7.46599,-7.00239 l -3.18572,-0.16657 -0.31393,5.6623 c -0.24722,4.4592 0.14764,6.35495 1.85834,8.92214 1.89435,2.84277 2.7445,5.10672 1.90678,5.07783 -0.14601,-0.005 -2.89369,-0.52163 -6.10595,-1.14798 -7.47528,-1.45761 -13.10793,-1.45854 -16.98294,-0.003 -4.42311,1.66161 -4.82259,0.38286 -1.66926,-5.34316 2.48869,-4.51883 2.72363,-5.91781 2.72363,-16.21725 0,-11.5263 -0.93718,-15.08008 -4.55096,-17.2572 -4.11495,-2.47904 -1.16452,-2.83645 23.4151,-2.83645 28.27165,0 29.78181,0.3072 35.02753,7.12525 3.04357,3.95584 -0.48779,10.49262 -6.15709,11.3972 -1.71063,0.27294 -3.38283,0.81669 -3.71602,1.20833 -0.3332,0.39164 -2.25011,0.71208 -4.2598,0.71208 -4.86726,0 -4.60725,0.82666 0.8591,2.73134 4.26673,1.48669 5.23174,2.40329 9.30692,8.84009 1.19408,1.88606 5.35438,1.92819 6.02652,0.061 1.17105,-3.25315 4.57727,-0.9649 4.57727,3.07494 0,3.47369 -3.09468,6.52195 -8.19207,8.06917 -4.50902,1.36864 -5.96456,1.35938 -11.34157,-0.0721 z m -10.00166,-25.73777 c 3.82245,-2.18427 5.57318,-7.01382 3.7139,-10.24511 -1.91253,-3.32384 -4.36226,-4.72159 -8.27514,-4.72159 -4.90395,0 -7.07212,2.21085 -8.42701,8.5929 -0.65805,3.09967 -0.9316,6.13717 -0.60788,6.75 0.9158,1.73372 10.36115,1.47236 13.59613,-0.3762 z m 55.55196,24.54061 c -10.03097,-1.3551 -15.5938,-1.31276 -18.08799,0.13764 -0.60363,0.35103 -1.6795,0.37693 -2.3908,0.0575 -0.95908,-0.43061 -0.5444,-1.66507 1.60483,-4.7773 2.78189,-4.02834 2.89562,-4.66074 2.83574,-15.76808 -0.0587,-10.89702 -0.22756,-11.82302 -2.8966,-15.8887 -1.55883,-2.37451 -2.83423,-4.52396 -2.83423,-4.77655 0,-0.25259 3.22554,-0.264 7.16786,-0.0254 4.00359,0.24235 10.44932,0.005 14.60119,-0.53671 17.88093,-2.33477 28.01791,-1.24221 33.08473,3.56585 l 2.52458,2.39566 -7.58235,1.73844 c -7.98991,1.83187 -9.38777,1.57857 -9.42737,-1.70833 -0.0267,-2.21461 -3.9301,-4.43571 -7.79544,-4.43571 -6.01075,0 -8.70928,3.20985 -9.95311,11.83907 -0.67698,4.69672 0.80285,6.05824 4.17895,3.84484 1.32184,-0.86661 3.93675,-2.21286 5.8109,-2.99167 l 3.40756,-1.41602 6.74406,2.46189 c 6.89022,2.51524 10.75841,3.06352 11.92654,1.69046 1.38077,-1.623 3.71667,-0.7612 3.71667,1.37121 0,2.69335 -2.41753,5.24345 -6.38316,6.7332 -4.50831,1.69362 -6.60933,1.45013 -13.76099,-1.59479 -7.83655,-3.33654 -13.08478,-3.46646 -13.66125,-0.33819 -0.19547,1.06072 -0.79279,2.25836 -1.32738,2.66143 -2.58256,1.94719 0.30614,10.5508 4.339,12.92313 2.99217,1.76014 9.8669,1.82201 12.22353,0.11002 2.29791,-1.66933 3.94195,-4.87348 3.21078,-6.25766 -0.47389,-0.89715 0.3669,-1.00246 4.61501,-0.57802 2.85696,0.28545 7.01368,0.1541 9.23714,-0.2919 2.22346,-0.44599 4.20899,-0.69006 4.41228,-0.54238 0.2033,0.14769 -0.39385,1.65468 -1.32698,3.34887 -1.811,3.28804 -5.44627,6.00949 -9.5364,7.13918 -5.07703,1.40227 -17.92497,1.36147 -28.6773,-0.0911 z m -217.63814,0.25929 c -1.13638,-0.82554 -0.55526,-2.21182 1.64703,-3.92909 3.20379,-2.49818 4.93293,-15.18805 3.39552,-24.91904 -0.61947,-3.92089 -1.66085,-7.25834 -2.31418,-7.41654 -0.65331,-0.15821 -1.18786,-0.73693 -1.18786,-1.28605 0,-0.54912 -0.68838,-1.41343 -1.52973,-1.92069 -0.84136,-0.50725 -1.30759,-1.34283 -1.03608,-1.85684 0.37401,-0.70804 2.42103,-0.75703 8.44575,-0.20212 5.13677,0.47313 10.00558,0.46204 13.75233,-0.0313 6.75531,-0.88951 7.7015,-0.23399 4.48137,3.1047 -1.81849,1.88545 -2.20342,3.80945 -2.62377,13.11429 -0.81251,17.98547 1.65981,23.11895 11.13421,23.11895 6.32394,0 9.32799,-2.15735 9.16822,-6.58411 -0.0844,-2.33994 -0.76741,-3.60789 -2.48866,-4.62042 -2.69954,-1.588 -6.44026,-1.81788 -8.24518,-0.50669 -1.8893,1.37249 -3.87065,-2.48533 -3.00267,-5.84642 0.56951,-2.20537 1.55009,-3.07161 4.86969,-4.30189 5.21043,-1.93104 8.10836,-1.93841 12.41326,-0.0316 5.57376,2.46889 7.22555,5.03305 7.22555,11.21657 0,5.81774 -1.55153,8.08397 -7.95847,11.62445 -3.44257,1.90237 -13.89842,2.35242 -26.94252,1.15966 -6.45409,-0.59015 -11.33101,-0.65193 -14.22149,-0.18013 -2.41946,0.39492 -4.6615,0.52734 -4.98232,0.29428 z m 79.85599,-0.32296 c -2.19018,-0.42258 -3.98213,-1.08099 -3.98213,-1.46313 0,-0.38213 -0.71542,-0.69479 -1.5898,-0.69479 -2.44936,0 -9.29809,-4.86585 -12.10774,-8.60223 -3.81692,-5.07589 -4.36715,-13.98435 -1.1609,-18.79584 3.12467,-4.68907 7.86702,-8.31091 13.79654,-10.53673 6.94021,-2.60522 21.64498,-2.5735 29.05634,0.0627 14.17958,5.04358 19.88323,15.62922 14.49322,26.89854 -5.12128,10.70747 -21.72385,16.36944 -38.50553,13.13151 z m 15.83709,-3.89364 c 4.04248,-3.28329 5.14003,-6.70297 5.04639,-15.72327 -0.14653,-14.11413 -5.3373,-21.37684 -14.26077,-19.95304 -1.9543,0.31182 -3.91338,1.50363 -5.4697,3.3275 -2.22961,2.61291 -2.42704,3.74212 -2.45259,14.02738 -0.0291,11.73211 0.84196,14.85677 5.10774,18.32143 1.47704,1.19964 3.3346,1.73572 6.01447,1.73572 2.67988,0 4.53743,-0.53608 6.01446,-1.73572 z m -215.74067,3.30982 c -1.16809,-0.3533 -3.55738,-1.74194 -5.30952,-3.08586 l -3.18571,-2.44349 -0.35368,-13.00647 c -0.39642,-14.57794 0.30846,-16.76156 6.50003,-20.13635 3.32063,-1.80994 4.02131,-1.8659 26.50722,-2.11715 l 23.09643,-0.25807 0,3.48079 0,3.48078 -22.34021,0.24871 c -24.76613,0.27572 -24.33769,0.17979 -24.36735,5.45586 l -0.0163,2.89286 18.64439,0 18.64439,0 -0.32653,3.27857 -0.32654,3.27857 -18.31786,0.21107 -18.31785,0.21108 0,5.2275 c 0,3.03726 0.5339,5.61535 1.27428,6.15321 0.90943,0.66066 7.59853,0.92571 23.36191,0.92571 l 22.08762,0 0,3.47143 0,3.47143 -22.56548,-0.0489 c -12.41101,-0.0269 -23.52119,-0.33796 -24.68929,-0.69127 z m 57.65128,-5.62411 c -0.16963,-3.50035 -0.16897,-12.87321 0.001,-20.82857 l 0.30987,-14.46429 17.21155,0.0184 c 18.65455,0.0199 23.49524,0.51154 27.19208,2.76146 4.83097,2.94015 8.26032,10.21503 5.41709,11.49157 -1.53385,0.68865 -1.30584,4.05758 0.32371,4.78309 0.7621,0.3393 2.4346,1.87288 3.71667,3.40796 4.79952,5.74666 1.73791,13.48503 -6.85268,17.32043 -3.9415,1.75975 -4.86968,1.82695 -25.55071,1.85016 l -21.46023,0.0241 -0.30842,-6.36429 z m 44.33985,-2.47208 c 3.46015,-2.51364 3.44869,-6.05051 -0.0278,-8.57601 -2.60362,-1.89142 -2.82284,-1.9112 -18.84881,-1.70065 l -16.21449,0.21303 -0.32014,4.93303 c -0.17607,2.71317 -0.0716,5.40353 0.23215,5.97857 0.43093,0.8158 4.07034,1.04554 16.56245,1.04554 15.58257,0 16.07978,-0.0506 18.61666,-1.89351 z m -4.53188,-18.94388 c 2.22129,-1.88464 2.25678,-2.9863 0.1611,-5.00091 -1.40067,-1.34649 -3.11808,-1.57331 -13.7728,-1.81902 -16.55421,-0.38175 -17.4785,-0.16944 -17.4785,4.01487 0,1.83049 0.31858,3.55959 0.70794,3.84245 0.38936,0.28286 6.97316,0.51429 14.63067,0.51429 12.63501,0 14.09188,-0.14352 15.75159,-1.55168 z m -137.0152,23.47927 c -1.89815,-1.84164 -3.45119,-3.54406 -3.45119,-3.78315 0,-0.71306 -10.75097,-10.43016 -11.5399,-10.43016 -0.85058,0 -11.80147,10.4882 -11.86516,11.36383 -0.0902,1.23991 -6.19656,5.75779 -7.18339,5.31473 -0.56887,-0.2554 -1.65256,-2.72399 -2.40822,-5.48575 -0.75566,-2.76176 -1.72211,-5.02138 -2.14766,-5.02138 -0.42556,0 -1.10413,-1.47535 -1.50793,-3.27857 -0.40379,-1.80321 -1.3595,-4.32 -2.12381,-5.59286 -0.76431,-1.27285 -1.97207,-4.22357 -2.68394,-6.55714 -0.71187,-2.33357 -1.64062,-4.59 -2.06389,-5.01429 -0.6813,-0.68293 -3.19991,-7.32723 -3.19991,-8.4416 0,-0.63602 7.77625,-0.499 9.11265,0.16056 0.63159,0.31171 1.79727,2.82318 2.59039,5.58104 0.79311,2.75786 2.06537,5.88215 2.82724,6.94286 0.76186,1.06071 1.39109,2.62286 1.39829,3.47143 0.007,0.84857 0.72693,2.53718 1.5994,3.75247 0.87247,1.21528 1.58632,2.69064 1.58632,3.27857 0,2.55618 3.15589,0.59442 9.42645,-5.85967 l 6.73161,-6.92862 5.1771,5.19291 c 2.84739,2.8561 5.96877,5.97398 6.93637,6.92863 2.32689,2.2957 4.64751,2.22214 4.64751,-0.14733 0,-1.03568 0.43629,-2.07893 0.96952,-2.31833 0.53323,-0.23941 1.29946,-1.90882 1.70272,-3.70982 0.40328,-1.80099 1.37881,-4.31595 2.16787,-5.58881 0.78904,-1.27286 2.081,-4.22357 2.87101,-6.55715 1.43509,-4.23903 1.44039,-4.24307 5.88883,-4.48007 4.25021,-0.22643 4.45215,-0.13883 4.4459,1.92858 -0.003,1.19118 -0.62989,3.03364 -1.39175,4.09435 -0.76186,1.06072 -2.02182,4.10838 -2.79991,6.77258 -0.7781,2.66421 -1.79217,5.01348 -2.25349,5.2206 -0.46131,0.20712 -1.40055,2.3666 -2.0872,4.79885 -0.68664,2.43224 -1.60297,4.7694 -2.03629,5.19369 -0.43332,0.42429 -1.40254,2.94107 -2.15382,5.59286 -0.75129,2.65178 -1.74349,4.82143 -2.20491,4.82143 -0.46142,0 -0.99345,0.47996 -1.18228,1.06658 -0.20427,0.63456 -1.74124,-0.28971 -3.79453,-2.28185 z M 89.898741,967.51266 c -0.3843,-0.27918 -0.69874,-4.79971 -0.69874,-10.04562 l 0,-9.53804 -13.00833,0.21661 c -12.57777,0.20943 -13.01956,0.27405 -13.34767,1.95231 -0.44105,2.25603 -1.83216,2.19402 -4.91038,-0.21887 -2.42377,-1.89991 -2.83081,-1.94847 -14.55048,-1.73572 l -12.056947,0.21888 -0.329578,2.89285 c -0.334927,2.9398 -0.838923,3.25876 -3.831192,2.42461 -2.60833,-0.72712 -2.295692,-12.99081 0.519301,-20.37034 3.29924,-8.64899 7.906877,-14.2717 17.441636,-21.2841 13.16184,-9.67995 27.88446,-14.20317 46.15509,-14.1802 18.161249,0.0228 34.275149,4.82178 46.671029,13.89928 12.07127,8.8398 17.58488,17.35872 19.45585,30.06075 1.22977,8.34885 0.25896,11.57143 -3.48589,11.57143 -1.87896,0 -2.17571,-0.39477 -1.88461,-2.50714 l 0.34551,-2.50714 -12.44398,-0.21713 c -11.31712,-0.19747 -12.63931,-0.0752 -14.60119,1.35 -2.77214,2.01384 -5.34293,2.0141 -5.34293,5.3e-4 0,-1.50105 -0.54433,-1.55754 -13.00833,-1.35 l -13.008339,0.2166 -0.29828,8.98961 c -0.20735,6.2491 -0.72273,9.24551 -1.69056,9.82902 -0.76576,0.46168 -1.7067,0.61099 -2.091,0.33182 z m -32.55443,-26.28617 c 8e-4,-1.59107 0.71694,-5.84357 1.59141,-9.45 0.87447,-3.60643 1.5906,-6.64393 1.5914,-6.75 8e-4,-0.10607 -4.95754,-0.19286 -11.01853,-0.19286 -7.99128,0 -11.349099,0.2881 -12.217519,1.04825 -1.93292,1.69194 -5.410775,9.72334 -6.126669,14.14829 l -0.661571,4.08918 13.420019,0 13.42002,0 10e-4,-2.89286 z m 31.8557,-6.75 0,-9.64286 -11.68095,0 c -6.42452,0 -11.68095,0.14304 -11.68095,0.31785 0,0.17482 -0.71672,3.03875 -1.59268,6.36429 -0.87597,3.32554 -1.59275,7.52179 -1.59287,9.32501 l -1.8e-4,3.27857 13.27382,0 13.27381,0 0,-9.64286 z m 30.750249,4.43571 c -0.0247,-2.86392 -0.65736,-7.11642 -1.40579,-9.45 l -1.36081,-4.24285 -11.86801,-0.21813 -11.868019,-0.21812 0,9.66812 0,9.66813 13.273809,0 13.27381,0 -0.045,-5.20715 z m 32.09316,1.73572 c -0.37362,-3.43596 -2.30366,-8.54018 -4.88594,-12.92143 l -1.70502,-2.89286 -11.27556,0 -11.27558,0 0.68048,3.27857 c 0.37426,1.80322 0.95482,5.70858 1.29011,8.67858 0.33529,2.97 0.79947,5.84466 1.03147,6.38815 0.31963,0.74871 3.5784,0.93563 13.44872,0.77143 l 13.02686,-0.21673 -0.33554,-3.08571 z m -86.750039,-25.5947 c 2.07197,-3.2578 4.95358,-7.05321 6.40358,-8.43425 1.45001,-1.38103 2.63638,-2.70629 2.63638,-2.94501 0,-0.89439 -10.51625,2.51334 -16.17153,5.24029 -6.04916,2.91687 -15.68562,9.83308 -15.68562,11.25776 0,0.49856 3.62207,0.80448 9.52499,0.80448 l 9.52499,0 3.76722,-5.92327 z m 23.90662,-3.71959 c 0,-5.30357 -0.26266,-9.64286 -0.58367,-9.64286 -3.91167,0 -12.84594,6.46089 -16.76302,12.12231 -5.20409,7.52156 -5.53689,7.16341 6.6561,7.16341 l 10.69059,0 0,-9.64286 z m 25.462399,8.67857 c -0.0377,-1.56092 -3.86435,-7.24909 -7.3589,-10.93888 -3.39867,-3.58855 -7.445799,-6.04072 -11.466589,-6.94761 l -2.38928,-0.53891 0,9.69484 0,9.69485 10.619039,0 c 7.79974,0 10.61286,-0.25602 10.59573,-0.96429 z m 26.57094,0.53736 c 0,-0.23482 -1.31411,-1.63379 -2.92024,-3.10884 -5.60881,-5.15106 -18.93366,-11.79402 -27.04835,-13.48468 l -2.95049,-0.61472 3.25985,3.44199 c 2.91148,3.07413 7.05718,9.13361 8.78689,12.84318 0.54058,1.1593 2.05921,1.35 10.75092,1.35 5.56678,0 10.12142,-0.19212 10.12142,-0.42693 z"
       style="fill:#994b26" />
    <path
       inkscape:connector-curvature="0"
       id="path3391"
       d="m 81.172281,1024.7854 c -2.3711,-1.7256 -6.17973,-4.3437 -8.46364,-5.818 -5.23368,-3.3783 -26.99641,-13.9052 -28.74682,-13.9052 -0.71975,0 -1.46793,-0.2604 -1.66261,-0.5786 -0.72153,-1.1794 -31.776532,-11.76424 -34.5151276,-11.76424 -2.61203,0 -2.761257,-2.20037 -0.510503,-7.5274 6.5803676,-15.57425 7.5930886,-18.10897 7.5930886,-19.00461 0,-1.81157 4.436559,-11.268 5.286471,-11.268 0.462589,0 3.285231,0.57345 6.272538,1.27433 4.113313,0.96506 5.431468,1.64482 5.431468,2.80094 0,1.29955 -0.526852,1.46449 -3.542322,1.10901 -4.541678,-0.53541 -5.407946,-0.069 -6.847981,3.68715 -0.650655,1.69714 -2.456007,6.38357 -4.011897,10.41429 -5.074342,13.14569 -5.637569,15.2191 -4.38193,16.13127 0.636081,0.46209 1.606392,0.84016 2.156246,0.84016 0.549854,0 5.040801,1.38857 9.979883,3.08571 4.939082,1.69715 9.194467,3.08572 9.456407,3.08572 2.05188,0 26.891629,11.36717 33.675219,15.41047 6.36666,3.7948 18.72278,14.3094 17.55689,14.9403 -0.22787,0.1233 -2.35429,-1.1877 -4.72538,-2.9133 z m 14.90894,1.1384 c 2.65361,-3.7324 16.733569,-13.8224 24.975929,-17.8983 11.80819,-5.8393 26.4013,-11.52057 40.35238,-15.70989 3.79631,-1.13998 7.04336,-2.16755 7.21567,-2.2835 0.39722,-0.26727 -1.63913,-6.65655 -3.56911,-11.19847 -0.81131,-1.90929 -2.74525,-6.76929 -4.29764,-10.8 -1.55239,-4.03072 -3.31407,-7.55786 -3.91483,-7.83809 -0.60077,-0.28024 -2.68635,-0.3216 -4.63462,-0.0919 -3.023,0.35637 -3.54233,0.19209 -3.54233,-1.1206 0,-1.19114 1.33723,-1.84375 5.92685,-2.89247 3.30027,-0.75411 6.29675,-1.05731 6.76151,-0.68417 0.45905,0.36855 1.89969,3.62082 3.2014,7.22725 1.30172,3.60643 3.7875,10.02857 5.52395,14.27143 5.87007,14.34297 5.9825,14.87706 3.27558,15.56039 -3.37782,0.8527 -16.63463,4.99954 -22.03453,6.89255 -20.02073,7.01867 -35.80509,14.57057 -48.05862,22.99307 -7.540509,5.1831 -8.756629,5.7881 -7.181589,3.5727 z m -19.09311,-18.2442 c -9.7389,-6.5817 -20.56314,-11.78458 -35.573821,-17.09937 -6.716548,-2.37811 -12.336213,-4.37748 -12.488142,-4.44304 -0.15193,-0.0656 0.438049,-1.64888 1.311065,-3.51851 1.978335,-4.23675 6.539949,-16.37471 7.510659,-19.98504 0.39927,-1.485 1.09683,-3.04715 1.55014,-3.47143 0.45331,-0.42429 1.387468,-2.76664 2.075928,-5.20523 1.062071,-3.76201 1.521971,-4.33405 3.035321,-3.77543 0.98098,0.3621 4.07046,1.06364 6.86554,1.55898 6.22078,1.10243 19.24915,5.97923 25.10247,9.39638 5.11967,2.98885 5.88282,4.83749 0.8763,2.12276 -7.85026,-4.25674 -23.40824,-8.7403 -28.51095,-8.21639 -2.18572,0.22441 -2.82594,1.03276 -4.48411,5.66179 -1.06389,2.97 -2.80615,7.83 -3.871671,10.8 -1.065528,2.97 -2.464898,6.37724 -3.109698,7.57165 -2.66531,4.93709 -1.8268,6.08867 6.526689,8.96354 11.80131,4.06144 24.31306,10.40035 31.20169,15.80784 6.33354,4.9718 7.81291,6.2441 9.26059,7.9641 1.34832,1.6019 0.46667,1.1013 -7.27801,-4.1326 z m 19.64523,4.7258 c 0,-0.312 2.42125,-2.7778 5.380529,-5.4795 6.83813,-6.2429 19.61783,-13.24936 32.4163,-17.77235 5.49769,-1.94289 10.24782,-3.82874 10.55582,-4.19077 0.57751,-0.67883 -0.86486,-5.33018 -4.77125,-15.38628 -1.23613,-3.18215 -2.76246,-7.34786 -3.39183,-9.25715 -2.00592,-6.08518 -3.16238,-6.38454 -14.43968,-3.73783 -7.45557,1.74978 -16.85581,5.43192 -22.760389,8.91542 l -3.52045,2.07694 2.65477,-2.19381 c 3.788369,-3.1306 14.266809,-8.64615 20.034289,-10.54548 7.08272,-2.33246 19.23757,-5.19752 19.67019,-4.63653 0.20293,0.26314 0.71341,1.867 1.13441,3.56415 0.42098,1.69714 1.13637,3.43285 1.58971,3.85714 0.45334,0.42429 1.60615,3.20143 2.56178,6.17143 0.95562,2.97 2.97486,8.52429 4.48719,12.34286 4.40237,11.11583 4.51591,10.08503 -1.31719,11.95909 -18.34212,5.893 -31.40929,11.9018 -42.56848,19.57467 -4.24365,2.9179 -7.715719,5.05 -7.715719,4.738 z M 548.26286,984.48196 c -5.03913,-0.50465 -9.43524,-4.55711 -10.88877,-10.03761 -1.71579,-6.46931 -3.61679,-9.1043 -7.38658,-10.23867 -5.4426,-1.63772 -6.7511,-0.18223 -6.30153,7.00941 0.29511,4.72105 0.87635,6.44982 2.80603,8.34588 2.58191,2.53696 2.22505,4.34394 -0.69106,3.49923 -0.96302,-0.27894 -4.46037,-0.79303 -7.7719,-1.14241 -5.28803,-0.5579 -7.52442,-0.42534 -14.68616,0.87049 -1.09626,0.19836 -1.47701,-0.1928 -1.22125,-1.25464 0.20439,-0.84857 0.73245,-1.71643 1.1735,-1.92857 2.51831,-1.21133 3.76437,-7.21297 3.7639,-18.12858 -5.2e-4,-11.68228 -1.12094,-16.11047 -4.45023,-17.58833 -3.42549,-1.52057 -0.37875,-2.00697 13.7424,-2.19392 29.70091,-0.39319 31.40804,-0.31554 36.37214,1.65444 10.2977,4.08658 10.61288,13.56388 0.54836,16.48934 -2.37045,0.68902 -5.37542,1.25808 -6.67771,1.26457 -2.98538,0.0149 -5.76339,1.25001 -4.64268,2.06415 0.46714,0.33935 2.84257,1.31287 5.27877,2.16338 3.21666,1.12297 4.94593,2.39125 6.31577,4.63209 2.98464,4.88239 3.50642,5.3855 5.8491,5.63967 1.38356,0.15012 2.65253,-0.3624 3.39601,-1.3716 1.62194,-2.20162 3.20429,-1.25714 3.20429,1.91259 0,3.22478 -1.6313,5.95334 -4.2768,7.15355 -2.4058,1.09147 -8.7837,1.65341 -13.4556,1.18554 z m -12.91264,-24.221 c 4.64639,-1.80647 6.60406,-4.03187 7.05994,-8.02548 0.39048,-3.42056 0.07,-4.27286 -2.41241,-6.41605 -5.0518,-4.36145 -12.68898,-2.9382 -15.29722,2.85075 -1.28674,2.85592 -1.61374,11.07799 -0.47352,11.90631 1.12152,0.81474 8.77441,0.59765 11.12321,-0.31553 z M 397.1524,983.36071 c -1.46012,-0.42633 -6.71654,-0.68414 -11.68096,-0.57294 -4.9644,0.11121 -9.23495,0.0481 -9.49009,-0.14026 -0.25515,-0.18834 0.43604,-1.34022 1.53598,-2.55974 2.17392,-2.41026 4.62309,-11.68514 4.71087,-17.83985 0.0855,-5.99486 -2.53021,-14.51777 -5.28688,-17.22643 -1.35795,-1.33431 -2.17531,-2.63938 -1.81636,-2.90016 0.35897,-0.26077 4.06018,-0.0317 8.22488,0.50894 6.14276,0.79748 8.57305,0.79672 12.87396,-0.004 2.91596,-0.54291 5.49868,-0.84404 5.73938,-0.66918 0.24071,0.17486 -0.62379,1.86113 -1.9211,3.74726 -2.151,3.1273 -2.35873,4.55026 -2.35873,16.15788 0,11.45186 0.21886,12.99921 2.18194,15.42684 2.76666,3.42137 6.30991,4.78228 11.32825,4.35105 4.22759,-0.36328 5.83011,-1.24163 8.09543,-4.43712 1.23641,-1.7441 1.18055,-2.36911 -0.41363,-4.62858 -2.4142,-3.42164 -3.38468,-3.83541 -8.44912,-3.60232 l -4.24762,0.19549 -0.31729,-3.5393 c -0.28148,-3.13991 0.018,-3.70315 2.65476,-4.99136 1.84504,-0.90143 4.85833,-1.45635 7.94637,-1.46338 6.48542,-0.0148 10.62721,2.67922 12.32267,8.01514 2.02846,6.38395 -1.19351,11.77465 -9.14784,15.30531 -3.16391,1.40435 -5.40726,1.72326 -11.86582,1.68681 -4.38035,-0.0247 -9.15893,-0.39375 -10.61904,-0.82008 z m 59.90854,-0.27441 c -9.15924,-2.10104 -14.53943,-5.29092 -19.53337,-11.58123 -2.01075,-2.53271 -2.46386,-4.26659 -2.52825,-9.67477 -0.0683,-5.72984 0.25076,-6.93698 2.44625,-9.25715 7.69317,-8.13003 14.57825,-10.9188 27.05997,-10.96051 7.18934,-0.024 9.45892,0.29708 14.05277,1.98819 7.92394,2.91699 12.56894,6.85509 15.2619,12.93925 2.15206,4.86211 2.18861,5.38772 0.67229,9.66761 -2.3917,6.75076 -3.37815,8.27648 -7.09836,10.97906 -3.76629,2.73606 -7.02485,4.10535 -13.92235,5.85035 -5.50661,1.39312 -10.48709,1.40806 -16.41085,0.0492 z m 12.90042,-2.74054 c 5.65562,-2.53924 7.13744,-6.52521 6.63322,-17.84275 -0.35053,-7.86752 -0.85459,-10.21782 -2.91532,-13.59302 -2.78957,-4.56896 -4.59079,-5.56207 -10.088,-5.56207 -4.36827,0 -7.64725,1.96848 -8.64109,5.18752 -0.36356,1.17758 -1.08984,3.35605 -1.61394,4.84105 -2.24442,6.35931 -0.0515,20.89424 3.79603,25.16 3.14441,3.48626 7.67183,4.12475 12.8291,1.80927 z m 126.60414,3.07111 c -3.01985,-1.27888 -18.16255,-1.83434 -20.908,-0.76694 -3.718,1.44551 -3.89437,0.42504 -0.73635,-4.26026 2.83326,-4.20348 2.8941,-4.58366 2.56313,-16.01676 -0.31215,-10.78289 -0.55721,-12.03092 -3.09204,-15.74665 -1.51416,-2.21956 -2.54871,-4.18399 -2.299,-4.36539 0.2497,-0.18141 1.84075,0.0214 3.53567,0.45059 3.2607,0.82575 8.59017,0.60672 23.28541,-0.95698 11.66968,-1.24176 20.1566,-0.5109 24.43477,2.10423 1.74612,1.06736 3.17475,2.35861 3.17475,2.86946 0,1.1952 -11.92166,4.19514 -12.41332,3.12366 -1.72578,-3.76113 -4.60446,-6.17904 -8.13279,-6.83104 -5.44881,-1.00688 -8.68074,0.44436 -10.73277,4.81937 -1.89715,4.04479 -2.18874,12.14184 -0.46512,12.91571 0.64629,0.29016 2.2629,-0.32471 3.59249,-1.36638 4.26402,-3.34065 8.19742,-4.05931 13.76429,-2.51486 2.65654,0.73703 4.83008,1.67215 4.83008,2.07806 0,0.4131 2.60694,0.62168 5.92134,0.47377 l 5.92134,-0.26425 -0.63762,2.31161 c -1.63131,5.91396 -10.79153,7.20039 -20.17368,2.83311 -8.01248,-3.72972 -11.27266,-3.28585 -13.20726,1.79814 -3.46925,9.11701 1.50883,16.58571 11.05482,16.58571 3.89703,0 8.99724,-3.86108 8.99724,-6.81131 0,-2.28206 0.0319,-2.29432 3.78849,-1.45675 2.75738,0.61477 4.99474,0.61077 8.22044,-0.0147 2.43757,-0.47265 4.56897,-0.75982 4.73646,-0.63815 0.59682,0.43357 -2.0571,4.70009 -3.81096,6.12661 -3.5262,2.86807 -10.40918,4.33863 -20.19033,4.3137 -5.06199,-0.0129 -10.02166,-0.36989 -11.02148,-0.79331 z m -341.17739,-0.69484 c -1.16809,-0.3533 -3.55738,-1.74194 -5.30952,-3.08586 l -3.18571,-2.44349 -0.35368,-13.00647 c -0.39642,-14.57794 0.30846,-16.76156 6.50003,-20.13635 3.32063,-1.80994 4.02131,-1.8659 26.50722,-2.11715 l 23.09643,-0.25807 0,3.48079 0,3.48078 -22.34021,0.24871 c -24.76613,0.27572 -24.33769,0.17979 -24.36735,5.45586 l -0.0163,2.89286 18.64439,0 18.64439,0 -0.32653,3.27857 -0.32654,3.27857 -18.31786,0.21107 -18.31785,0.21108 0,5.2275 c 0,3.03726 0.5339,5.61535 1.27428,6.15321 0.90943,0.66066 7.59853,0.92571 23.36191,0.92571 l 22.08762,0 0,3.47143 0,3.47143 -22.56548,-0.0489 c -12.41101,-0.0269 -23.52119,-0.33796 -24.68929,-0.69127 z m 57.65128,-5.62411 c -0.16963,-3.50035 -0.16897,-12.87321 10e-4,-20.82857 l 0.30987,-14.46429 17.21155,0.0184 c 18.65455,0.0199 23.49524,0.51154 27.19208,2.76146 4.83097,2.94015 8.26032,10.21503 5.41709,11.49157 -1.53385,0.68865 -1.30584,4.05758 0.32371,4.78309 0.76209,0.3393 2.43459,1.87288 3.71667,3.40796 4.79952,5.74666 1.73791,13.48503 -6.85268,17.32043 -3.94151,1.75975 -4.86969,1.82695 -25.55071,1.85016 l -21.46023,0.0241 -0.30843,-6.36429 z m 44.33985,-2.47208 c 3.46015,-2.51364 3.44869,-6.05051 -0.0278,-8.57601 -2.60362,-1.89142 -2.82284,-1.9112 -18.84881,-1.70065 l -16.21449,0.21303 -0.32014,4.93303 c -0.17607,2.71317 -0.0716,5.40353 0.23215,5.97857 0.43093,0.8158 4.07034,1.04554 16.56245,1.04554 15.58257,0 16.07978,-0.0506 18.61666,-1.89351 z m -4.53188,-18.94388 c 2.22129,-1.88464 2.25678,-2.9863 0.1611,-5.00091 -1.40067,-1.34649 -3.11808,-1.57331 -13.7728,-1.81902 -16.55421,-0.38175 -17.4785,-0.16944 -17.4785,4.01487 0,1.83049 0.31858,3.55959 0.70794,3.84245 0.38936,0.28286 6.97316,0.51429 14.63067,0.51429 12.63501,0 14.09188,-0.14352 15.75159,-1.55168 z m -137.0152,23.47927 c -1.89815,-1.84164 -3.45119,-3.54406 -3.45119,-3.78315 0,-0.71306 -10.75097,-10.43016 -11.5399,-10.43016 -0.85058,0 -11.80147,10.4882 -11.86516,11.36383 -0.0902,1.23991 -6.19656,5.75779 -7.18339,5.31473 -0.56887,-0.2554 -1.65256,-2.72399 -2.40822,-5.48575 -0.75566,-2.76176 -1.72211,-5.02138 -2.14766,-5.02138 -0.42556,0 -1.10413,-1.47535 -1.50793,-3.27857 -0.40379,-1.80321 -1.3595,-4.32 -2.12381,-5.59286 -0.76431,-1.27285 -1.97207,-4.22357 -2.68394,-6.55714 -0.71187,-2.33357 -1.64062,-4.59 -2.06389,-5.01429 -0.6813,-0.68293 -3.19991,-7.32723 -3.19991,-8.4416 0,-0.63602 7.77625,-0.499 9.11265,0.16056 0.63159,0.31171 1.79727,2.82318 2.59039,5.58104 0.79311,2.75786 2.06537,5.88215 2.82724,6.94286 0.76186,1.06071 1.39109,2.62286 1.39829,3.47143 0.007,0.84857 0.72693,2.53718 1.5994,3.75247 0.87247,1.21528 1.58632,2.69064 1.58632,3.27857 0,2.55618 3.15589,0.59442 9.42645,-5.85967 l 6.73161,-6.92862 5.17709,5.19291 c 2.8474,2.8561 5.96878,5.97398 6.93638,6.92863 2.32689,2.2957 4.64751,2.22214 4.64751,-0.14733 0,-1.03568 0.43628,-2.07893 0.96951,-2.31833 0.53323,-0.23941 1.29946,-1.90882 1.70273,-3.70982 0.40328,-1.80099 1.37881,-4.31595 2.16786,-5.58881 0.78904,-1.27286 2.081,-4.22357 2.87101,-6.55715 1.43509,-4.23903 1.44039,-4.24307 5.88883,-4.48007 4.25021,-0.22643 4.45215,-0.13883 4.4459,1.92858 -0.003,1.19118 -0.62989,3.03364 -1.39175,4.09435 -0.76186,1.06072 -2.02182,4.10838 -2.79991,6.77258 -0.77809,2.66421 -1.79216,5.01348 -2.25348,5.2206 -0.46131,0.20712 -1.40056,2.3666 -2.0872,4.79885 -0.68664,2.43224 -1.60297,4.7694 -2.0363,5.19369 -0.43332,0.42429 -1.40254,2.94107 -2.15381,5.59286 -0.75129,2.65178 -1.74349,4.82143 -2.20491,4.82143 -0.46142,0 -0.99345,0.47996 -1.18228,1.06658 -0.20427,0.63456 -1.74125,-0.28971 -3.79453,-2.28185 z M 89.898741,967.51266 c -0.3843,-0.27918 -0.69874,-4.79971 -0.69874,-10.04562 l 0,-9.53804 -13.00833,0.21661 c -12.57777,0.20943 -13.01956,0.27405 -13.34767,1.95231 -0.44105,2.25603 -1.83216,2.19402 -4.91038,-0.21887 -2.42377,-1.89991 -2.83081,-1.94847 -14.55048,-1.73572 l -12.056947,0.21888 -0.329578,2.89285 c -0.334927,2.9398 -0.838923,3.25876 -3.831192,2.42461 -2.60833,-0.72712 -2.295692,-12.99081 0.519301,-20.37034 3.29924,-8.64899 7.906877,-14.2717 17.441636,-21.2841 13.16184,-9.67995 27.88446,-14.20317 46.15509,-14.1802 18.161249,0.0228 34.275149,4.82178 46.671029,13.89928 12.07127,8.8398 17.58488,17.35872 19.45585,30.06075 1.22977,8.34885 0.25896,11.57143 -3.48589,11.57143 -1.87896,0 -2.17571,-0.39477 -1.88461,-2.50714 l 0.34551,-2.50714 -12.44398,-0.21713 c -11.31712,-0.19747 -12.63931,-0.0752 -14.60119,1.35 -2.77214,2.01384 -5.34293,2.0141 -5.34293,5.3e-4 0,-1.50105 -0.54433,-1.55754 -13.00833,-1.35 l -13.008339,0.2166 -0.29828,8.98961 c -0.20735,6.2491 -0.72273,9.24551 -1.69056,9.82902 -0.76576,0.46168 -1.7067,0.61099 -2.091,0.33182 z m -32.55443,-26.28617 c 8e-4,-1.59107 0.71694,-5.84357 1.59141,-9.45 0.87447,-3.60643 1.5906,-6.64393 1.5914,-6.75 8e-4,-0.10607 -4.95754,-0.19286 -11.01853,-0.19286 -7.99128,0 -11.349099,0.2881 -12.217519,1.04825 -1.93292,1.69194 -5.410775,9.72334 -6.126669,14.14829 l -0.661571,4.08918 13.420019,0 13.42002,0 10e-4,-2.89286 z m 31.8557,-6.75 0,-9.64286 -11.68095,0 c -6.42452,0 -11.68095,0.14304 -11.68095,0.31785 0,0.17482 -0.71672,3.03875 -1.59268,6.36429 -0.87597,3.32554 -1.59275,7.52179 -1.59287,9.32501 l -1.8e-4,3.27857 13.27382,0 13.27381,0 0,-9.64286 z m 30.750249,4.43571 c -0.0247,-2.86392 -0.65736,-7.11642 -1.40579,-9.45 l -1.36081,-4.24285 -11.86801,-0.21813 -11.868019,-0.21812 0,9.66812 0,9.66813 13.273809,0 13.27381,0 -0.045,-5.20715 z m 32.09316,1.73572 c -0.37362,-3.43596 -2.30366,-8.54018 -4.88594,-12.92143 l -1.70502,-2.89286 -11.27556,0 -11.27558,0 0.68048,3.27857 c 0.37426,1.80322 0.95482,5.70858 1.29011,8.67858 0.33529,2.97 0.79947,5.84466 1.03147,6.38815 0.31963,0.74871 3.5784,0.93563 13.44872,0.77143 l 13.02686,-0.21673 -0.33554,-3.08571 z m -86.750039,-25.5947 c 2.07197,-3.2578 4.95358,-7.05321 6.40358,-8.43425 1.45001,-1.38103 2.63638,-2.70629 2.63638,-2.94501 0,-0.89439 -10.51625,2.51334 -16.17153,5.24029 -6.04916,2.91687 -15.68562,9.83308 -15.68562,11.25776 0,0.49856 3.62207,0.80448 9.52499,0.80448 l 9.52499,0 3.76722,-5.92327 z m 23.90662,-3.71959 c 0,-5.30357 -0.26266,-9.64286 -0.58367,-9.64286 -3.91167,0 -12.84594,6.46089 -16.76302,12.12231 -5.20409,7.52156 -5.53689,7.16341 6.6561,7.16341 l 10.69059,0 0,-9.64286 z m 25.462399,8.67857 c -0.0377,-1.56092 -3.86435,-7.24909 -7.3589,-10.93888 -3.39867,-3.58855 -7.445799,-6.04072 -11.466589,-6.94761 l -2.38928,-0.53891 0,9.69484 0,9.69485 10.619039,0 c 7.79974,0 10.61286,-0.25602 10.59573,-0.96429 z m 26.57094,0.53736 c 0,-0.23482 -1.31411,-1.63379 -2.92024,-3.10884 -5.60881,-5.15106 -18.93366,-11.79402 -27.04835,-13.48468 l -2.95049,-0.61472 3.25985,3.44199 c 2.91148,3.07413 7.05718,9.13361 8.78689,12.84318 0.54058,1.1593 2.05921,1.35 10.75092,1.35 5.56678,0 10.12142,-0.19212 10.12142,-0.42693 z"
       style="fill:#963a11" />
    <path
       inkscape:connector-curvature="0"
       id="path3389"
       d="m 255.3881,982.72203 c -1.16809,-0.3533 -3.55738,-1.74194 -5.30952,-3.08586 l -3.1857,-2.44349 -0.35368,-13.00647 c -0.39642,-14.57794 0.30846,-16.76156 6.50002,-20.13635 3.32063,-1.80994 4.02132,-1.8659 26.50723,-2.11715 l 23.09643,-0.25807 0,3.48079 0,3.48078 -22.34022,0.24871 c -24.76612,0.27572 -24.33769,0.17979 -24.36734,5.45586 l -0.0163,2.89286 18.64438,0 18.64439,0 -0.32653,3.27857 -0.32654,3.27857 -18.31786,0.21107 -18.31785,0.21108 0,5.2275 c 0,3.03726 0.5339,5.61535 1.27428,6.15321 0.90943,0.66066 7.59853,0.92571 23.36191,0.92571 l 22.08762,0 0,3.47143 0,3.47143 -22.56548,-0.0489 c -12.411,-0.0269 -23.52119,-0.33796 -24.68929,-0.69127 z m 57.65128,-5.62411 c -0.16962,-3.50035 -0.16897,-12.87321 0.001,-20.82857 l 0.30987,-14.46429 17.21155,0.0184 c 18.65455,0.0199 23.49524,0.51154 27.19208,2.76146 4.83097,2.94015 8.26032,10.21503 5.41709,11.49157 -1.53385,0.68865 -1.30584,4.05758 0.32371,4.78309 0.7621,0.3393 2.4346,1.87288 3.71667,3.40796 4.79952,5.74666 1.73791,13.48503 -6.85268,17.32043 -3.9415,1.75975 -4.86968,1.82695 -25.55071,1.85016 l -21.46023,0.0241 -0.30842,-6.36429 z m 44.33985,-2.47208 c 3.46015,-2.51364 3.44869,-6.05051 -0.0278,-8.57601 -2.60361,-1.89142 -2.82284,-1.9112 -18.84881,-1.70065 l -16.21449,0.21303 -0.32014,4.93303 c -0.17607,2.71317 -0.0716,5.40353 0.23215,5.97857 0.43093,0.8158 4.07034,1.04554 16.56245,1.04554 15.58257,0 16.07979,-0.0506 18.61667,-1.89351 z m -4.53188,-18.94388 c 2.2213,-1.88464 2.25678,-2.9863 0.1611,-5.00091 -1.40067,-1.34649 -3.11808,-1.57331 -13.7728,-1.81902 -16.55421,-0.38175 -17.4785,-0.16944 -17.4785,4.01487 0,1.83049 0.31858,3.55959 0.70794,3.84245 0.38936,0.28286 6.97316,0.51429 14.63067,0.51429 12.63501,0 14.09188,-0.14352 15.75159,-1.55168 z m -137.0152,23.47927 c -1.89815,-1.84164 -3.45119,-3.54406 -3.45119,-3.78315 0,-0.71306 -10.75097,-10.43016 -11.5399,-10.43016 -0.85057,0 -11.80147,10.4882 -11.86516,11.36383 -0.0902,1.23991 -6.19656,5.75779 -7.18339,5.31473 -0.56887,-0.2554 -1.65256,-2.72399 -2.40822,-5.48575 -0.75566,-2.76176 -1.72211,-5.02138 -2.14766,-5.02138 -0.42556,0 -1.10413,-1.47535 -1.50793,-3.27857 -0.40378,-1.80321 -1.3595,-4.32 -2.1238,-5.59286 -0.76431,-1.27285 -1.97208,-4.22357 -2.68395,-6.55714 -0.71187,-2.33357 -1.64062,-4.59 -2.06388,-5.01429 -0.6813,-0.68293 -3.19991,-7.32723 -3.19991,-8.4416 0,-0.63602 7.77625,-0.499 9.11265,0.16056 0.63159,0.31171 1.79727,2.82318 2.59039,5.58104 0.79311,2.75786 2.06537,5.88215 2.82724,6.94286 0.76186,1.06071 1.39109,2.62286 1.39829,3.47143 0.007,0.84857 0.72693,2.53718 1.5994,3.75247 0.87247,1.21528 1.58632,2.69064 1.58632,3.27857 0,2.55618 3.15589,0.59442 9.42645,-5.85967 l 6.73161,-6.92862 5.17709,5.19291 c 2.8474,2.8561 5.96878,5.97398 6.93638,6.92863 2.32689,2.2957 4.64751,2.22214 4.64751,-0.14733 0,-1.03568 0.43628,-2.07893 0.96951,-2.31833 0.53323,-0.23941 1.29946,-1.90882 1.70273,-3.70982 0.40328,-1.80099 1.37881,-4.31595 2.16786,-5.58881 0.78904,-1.27286 2.081,-4.22357 2.87101,-6.55715 1.43509,-4.23903 1.44039,-4.24307 5.88883,-4.48007 4.25021,-0.22643 4.45215,-0.13883 4.4459,1.92858 -0.003,1.19118 -0.62989,3.03364 -1.39175,4.09435 -0.76186,1.06072 -2.02182,4.10838 -2.79991,6.77258 -0.77809,2.66421 -1.79216,5.01348 -2.25348,5.2206 -0.46131,0.20712 -1.40056,2.3666 -2.0872,4.79885 -0.68664,2.43224 -1.60297,4.7694 -2.0363,5.19369 -0.43332,0.42429 -1.40254,2.94107 -2.15381,5.59286 -0.75129,2.65178 -1.74349,4.82143 -2.20491,4.82143 -0.46142,0 -0.99345,0.47996 -1.18228,1.06658 -0.20427,0.63456 -1.74125,-0.28971 -3.79453,-2.28185 z M 89.898741,967.51266 c -0.3843,-0.27918 -0.69874,-4.79971 -0.69874,-10.04562 l 0,-9.53804 -13.00833,0.21661 c -12.57777,0.20943 -13.01956,0.27405 -13.34767,1.95231 -0.44105,2.25603 -1.83216,2.19402 -4.91038,-0.21887 -2.42377,-1.89991 -2.83081,-1.94847 -14.55048,-1.73572 l -12.056947,0.21888 -0.329578,2.89285 c -0.334927,2.9398 -0.838923,3.25876 -3.831192,2.42461 -2.60833,-0.72712 -2.295692,-12.99081 0.519301,-20.37034 3.29924,-8.64899 7.906877,-14.2717 17.441636,-21.2841 13.16184,-9.67995 27.88446,-14.20317 46.15509,-14.1802 18.161249,0.0228 34.275149,4.82178 46.671029,13.89928 12.07127,8.8398 17.58488,17.35872 19.45585,30.06075 1.22977,8.34885 0.25896,11.57143 -3.48589,11.57143 -1.87896,0 -2.17571,-0.39477 -1.88461,-2.50714 l 0.34551,-2.50714 -12.44398,-0.21713 c -11.31712,-0.19747 -12.63931,-0.0752 -14.60119,1.35 -2.77214,2.01384 -5.34293,2.0141 -5.34293,5.3e-4 0,-1.50105 -0.54433,-1.55754 -13.00833,-1.35 l -13.008339,0.2166 -0.29828,8.98961 c -0.20735,6.2491 -0.72273,9.24551 -1.69056,9.82902 -0.76576,0.46168 -1.7067,0.61099 -2.091,0.33182 z m -32.55443,-26.28617 c 8e-4,-1.59107 0.71694,-5.84357 1.59141,-9.45 0.87447,-3.60643 1.5906,-6.64393 1.5914,-6.75 8e-4,-0.10607 -4.95754,-0.19286 -11.01853,-0.19286 -7.99128,0 -11.349099,0.2881 -12.217519,1.04825 -1.93292,1.69194 -5.410775,9.72334 -6.126669,14.14829 l -0.661571,4.08918 13.420019,0 13.42002,0 10e-4,-2.89286 z m 31.8557,-6.75 0,-9.64286 -11.68095,0 c -6.42452,0 -11.68095,0.14304 -11.68095,0.31785 0,0.17482 -0.71672,3.03875 -1.59268,6.36429 -0.87597,3.32554 -1.59275,7.52179 -1.59287,9.32501 l -1.8e-4,3.27857 13.27382,0 13.27381,0 0,-9.64286 z m 30.750249,4.43571 c -0.0247,-2.86392 -0.65736,-7.11642 -1.40579,-9.45 l -1.36081,-4.24285 -11.86801,-0.21813 -11.868019,-0.21812 0,9.66812 0,9.66813 13.273809,0 13.27381,0 -0.045,-5.20715 z m 32.09316,1.73572 c -0.37362,-3.43596 -2.30366,-8.54018 -4.88594,-12.92143 l -1.70502,-2.89286 -11.27556,0 -11.27558,0 0.68048,3.27857 c 0.37426,1.80322 0.95482,5.70858 1.29011,8.67858 0.33529,2.97 0.79947,5.84466 1.03147,6.38815 0.31963,0.74871 3.5784,0.93563 13.44872,0.77143 l 13.02686,-0.21673 -0.33554,-3.08571 z m -86.750039,-25.5947 c 2.07197,-3.2578 4.95358,-7.05321 6.40358,-8.43425 1.45001,-1.38103 2.63638,-2.70629 2.63638,-2.94501 0,-0.89439 -10.51625,2.51334 -16.17153,5.24029 -6.04916,2.91687 -15.68562,9.83308 -15.68562,11.25776 0,0.49856 3.62207,0.80448 9.52499,0.80448 l 9.52499,0 3.76722,-5.92327 z m 23.90662,-3.71959 c 0,-5.30357 -0.26266,-9.64286 -0.58367,-9.64286 -3.91167,0 -12.84594,6.46089 -16.76302,12.12231 -5.20409,7.52156 -5.53689,7.16341 6.6561,7.16341 l 10.69059,0 0,-9.64286 z m 25.462399,8.67857 c -0.0377,-1.56092 -3.86435,-7.24909 -7.3589,-10.93888 -3.39867,-3.58855 -7.445799,-6.04072 -11.466589,-6.94761 l -2.38928,-0.53891 0,9.69484 0,9.69485 10.619039,0 c 7.79974,0 10.61286,-0.25602 10.59573,-0.96429 z m 26.57094,0.53736 c 0,-0.23482 -1.31411,-1.63379 -2.92024,-3.10884 -5.60881,-5.15106 -18.93366,-11.79402 -27.04835,-13.48468 l -2.95049,-0.61472 3.25985,3.44199 c 2.91148,3.07413 7.05718,9.13361 8.78689,12.84318 0.54058,1.1593 2.05921,1.35 10.75092,1.35 5.56678,0 10.12142,-0.19212 10.12142,-0.42693 z"
       style="fill:#4c5b2b" />
    <path
       inkscape:connector-curvature="0"
       id="path3387"
       d="m 253.50005,981.05218 c -5.44487,-2.96658 -6.07622,-4.88042 -6.07622,-18.41854 0,-13.57262 0.65758,-15.55099 6.05168,-18.20688 2.69317,-1.32604 5.13382,-1.46455 25.80545,-1.46455 l 22.83096,0 0.32826,2.46345 0.32828,2.46346 -22.40312,0.23654 c -23.93988,0.25277 -23.60086,0.19488 -25.10174,4.28655 -0.35018,0.95464 -0.33685,2.60357 0.0296,3.66428 l 0.66631,1.92857 18.03215,0 18.03215,0 0,2.68179 0,2.68178 -18.31786,0.21108 -18.31788,0.21107 -0.31885,4.89764 c -0.22519,3.45877 0.16782,5.43724 1.33776,6.73437 1.646,1.82494 1.79805,1.83808 23.68078,2.04522 l 22.02414,0.20849 -0.006,2.31428 -0.006,2.31429 -22.8247,0.17719 c -21.68049,0.16831 -22.97258,0.0966 -25.77467,-1.43008 z m 59.76188,-18.41854 0,-20.05715 18.61744,0 c 23.59578,0 26.88612,0.85399 30.29023,7.86161 1.14351,2.35398 1.13541,3.39265 -0.0467,5.99476 -1.35744,2.98798 -1.29656,3.2541 1.20188,5.25268 5.6114,4.48877 6.49615,8.92266 2.89192,14.4929 -3.86022,5.96584 -6.51825,6.51234 -31.67435,6.51234 l -21.2804,0 0,-20.05714 z m 44.48769,12.41907 c 4.50252,-3.05548 4.49268,-6.36078 -0.0281,-9.42864 l -3.32608,-2.25715 -16.58459,0.21193 -16.5846,0.21193 -0.31327,6.10445 c -0.22388,4.36263 0.0791,6.28527 1.0619,6.73819 0.75635,0.34855 8.37304,0.63906 16.92596,0.64555 l 15.5508,0.0118 3.29801,-2.23807 z m -4.618,-18.94115 c 3.13657,-2.27858 3.25799,-3.52183 0.57893,-5.92818 -1.91435,-1.71948 -2.80675,-1.83541 -15.98228,-2.07611 -9.77366,-0.17855 -14.41586,0.0231 -15.49385,0.67303 -1.9434,1.17167 -2.11314,8.15651 -0.21178,8.71386 0.73006,0.21401 7.44178,0.41651 14.91493,0.45 13.06437,0.0586 13.68792,-0.012 16.19405,-1.8326 z m -137.54754,21.82193 c -3.16425,-3.57603 -9.3329,-9.73401 -12.82885,-12.80671 -0.67683,-0.59488 -1.72419,-0.72982 -2.67246,-0.3443 -1.35397,0.55045 -12.55664,11.29835 -15.98321,15.33438 -0.66156,0.77923 -1.40499,1.24321 -1.65206,1.03107 -0.55047,-0.47264 -5.63364,-12.57323 -7.93945,-18.90001 -0.92779,-2.54571 -2.05011,-4.97571 -2.49406,-5.4 -0.44395,-0.42428 -1.1541,-2.29821 -1.57811,-4.16429 -0.42402,-1.86607 -1.43376,-4.54528 -2.24388,-5.95379 -2.19147,-3.81022 -1.91352,-4.2737 2.40311,-4.00706 4.28416,0.26464 3.61743,-0.76673 10.12851,15.668 2.60519,6.57581 4.04554,8.87406 5.55465,8.86307 0.63136,-0.005 2.82044,-1.76556 4.8646,-3.91327 2.04417,-2.14771 4.51675,-4.54767 5.49463,-5.33325 0.97786,-0.78559 2.33691,-2.18707 3.02008,-3.11441 l 1.24214,-1.68607 1.99596,2.20625 c 5.67982,6.27821 11.43959,11.48966 12.93077,11.69977 1.24857,0.17593 2.28045,-1.20497 4.0351,-5.4 1.29664,-3.10001 3.01109,-7.12387 3.8099,-8.94191 0.79881,-1.81804 1.45238,-3.76078 1.45238,-4.31719 0,-0.55642 0.75178,-2.10643 1.67063,-3.44447 1.32526,-1.92987 2.33807,-2.43281 4.8991,-2.43281 2.94979,0 3.18013,0.18312 2.66841,2.12143 -0.99286,3.76094 -3.0452,9.00278 -4.45506,11.37857 -0.75534,1.27286 -1.69096,3.52929 -2.07914,5.01429 -0.38819,1.485 -1.61614,4.78286 -2.72877,7.32857 -1.11263,2.54572 -2.88956,6.65351 -3.94874,9.12843 l -1.92577,4.49985 -3.64041,-4.11414 z m -125.322159,-20.21968 0,-9.73732 -13.90418,0 c -13.01111,0 -13.93985,0.0991 -14.45957,1.54286 -0.71052,1.97382 -2.04565,1.96517 -3.51016,-0.0228 -1.07976,-1.46566 -2.01429,-1.55185 -14.63856,-1.35 l -13.485162,0.21562 0.300166,2.82722 c 0.260035,2.44924 0.02997,2.7759 -1.720829,2.4433 -2.646335,-0.50274 -3.544761,-5.73903 -2.26001,-13.172 1.245285,-7.20464 1.873183,-8.89839 5.384005,-14.52332 9.080899,-14.54912 26.89489,-24.22695 49.9019,-27.11028 9.84425,-1.23372 10.96663,-1.23146 20.291049,0.0409 24.72177,3.37328 43.07071,14.76359 51.77043,32.13707 3.12267,6.23601 4.47563,20.55378 2.04779,21.67076 -2.51037,1.15493 -3.06449,0.79341 -3.06449,-1.99933 l 0,-2.7 -13.69115,0 c -11.19031,0 -13.8028,0.21137 -14.30239,1.15714 -0.33618,0.63643 -1.34301,1.15715 -2.23742,1.15715 -0.8944,0 -1.62618,-0.52072 -1.62618,-1.15715 0,-0.96923 -2.2418,-1.15714 -13.80477,-1.15714 l -13.804759,0 0,8.77697 c 0,6.86065 -0.34777,8.98665 -1.59285,9.73732 -1.40157,0.84501 -1.59286,-0.20905 -1.59286,-8.77697 z m -31.12566,-22.46589 c 0.71896,-5.09143 1.10243,-9.69107 0.85215,-10.22143 -0.48541,-1.02856 -17.83916,-1.41677 -21.218679,-0.47467 -3.65918,1.02006 -10.590471,17.11672 -8.452607,19.62963 0.379786,0.44642 6.128197,0.66655 14.076926,0.53907 l 13.435,-0.21546 1.30721,-9.25714 z m 30.89432,-0.32486 c 0.2235,-7.14744 -0.0463,-9.74146 -1.0619,-10.20962 -0.74884,-0.34519 -6.00837,-0.63293 -11.68783,-0.63942 l -10.32631,-0.0118 -1.64745,2.31438 c -1.64524,2.31125 -4.0867,16.68365 -3.04256,17.91097 0.30341,0.35664 6.60749,0.55148 14.00905,0.43297 l 13.45739,-0.21546 0.29961,-9.582 z m 30.816769,5.96241 c 0.38581,-4.3485 -2.58072,-15.38522 -4.36192,-16.2281 -0.69782,-0.33021 -6.04732,-0.51242 -11.88781,-0.40492 l -10.619039,0.19547 -0.30093,9.21223 c -0.16552,5.06673 -0.0554,9.67711 0.24475,10.2453 0.42379,0.80228 3.45625,0.98464 13.574749,0.81633 l 13.02905,-0.21672 0.32116,-3.61959 z m 31.88372,0.96667 c 0.35157,-2.68227 -1.74609,-8.80849 -4.84237,-14.14224 -2.03481,-3.5052 -3.284,-3.78312 -15.68154,-3.48884 l -9.55716,0.22686 0.23031,2.31428 c 0.22446,2.25536 3.07124,17.52796 3.34763,17.95946 0.0763,0.11913 5.99249,0.11913 13.14707,0 l 13.00834,-0.2166 0.34772,-2.65292 z M 62.740741,920.20506 c 0.46432,-0.63643 2.26638,-3.41357 4.00457,-6.17143 1.73819,-2.75786 4.4186,-6.22929 5.95646,-7.71429 2.33778,-2.25742 2.516,-2.74236 1.08728,-2.95846 -0.93986,-0.14216 -3.30498,0.29177 -5.25585,0.96428 -1.95085,0.67252 -3.83809,1.22275 -4.19385,1.22275 -0.89422,0 -11.2243,5.23747 -14.27001,7.23506 -4.38856,2.87832 -8.826061,7.36841 -8.11182,8.20795 1.13447,1.3335 19.75054,0.62959 20.78322,-0.78586 z m 25.84147,1.07461 c 1.40664,-0.39213 1.67971,-2.02245 1.67971,-10.02858 l 0,-9.56032 -2.86014,0 c -5.66421,0 -19.43986,13.13471 -19.43986,18.53538 0,1.40098 0.75168,1.52177 9.47029,1.52177 5.20866,0 10.22616,-0.21072 11.15,-0.46825 z m 26.272719,-1.84604 c -1.22639,-6.53822 -13.53422,-17.74286 -19.489789,-17.74286 -1.74509,0 -1.91751,0.8555 -1.91751,9.51429 0,5.23286 0.33472,9.75745 0.74383,10.05464 0.4091,0.2972 5.30713,0.44184 10.884519,0.32143 10.13861,-0.21888 10.14063,-0.21933 9.77895,-2.1475 z m 26.37842,1.06613 c 0,-1.53818 -5.13914,-5.86067 -11.60294,-9.75915 -4.94014,-2.97952 -16.83694,-7.50698 -19.72609,-7.50698 -1.74749,0 -2.14891,1.20087 -0.62946,1.88307 1.20922,0.54291 6.45559,7.42519 9.14963,12.00264 1.1237,1.90929 2.53414,3.72647 3.13431,4.03819 0.60017,0.31172 5.27246,0.57208 10.38288,0.57857 7.85916,0.01 9.29167,-0.18061 9.29167,-1.23634 z"
       style="fill:#3b4e16" />
  </g>
</svg>
